<?xml version="1.0" standalone="no"?>
<!DOCTYPE svg PUBLIC "-//W3C//DTD SVG 1.1//EN" "http://www.w3.org/Graphics/SVG/1.1/DTD/svg11.dtd" >
<svg xmlns="http://www.w3.org/2000/svg" xmlns:xlink="http://www.w3.org/1999/xlink" version="1.1">
<metadata>
Created by FontForge 20170731 at Sun Jan  9 21:31:44 2022
 By Aleksey,,,
Copyright (c) 1991 Adobe Systems Incorporated.  All Rights Reserved.ITC Avant Garde Gothic is a registered trademark of International Typeface Corporation.
</metadata>
<defs>
<font id="AvantGarde-Medium" horiz-adv-x="1136" >
  <font-face 
    font-family="ITC Avant Garde Gothic"
    font-weight="500"
    font-stretch="normal"
    units-per-em="2048"
    panose-1="0 0 0 0 0 0 0 0 0 0"
    ascent="1638"
    descent="-410"
    x-height="1135"
    cap-height="1516"
    bbox="-201 -526 2406 2011"
    underline-thickness="102"
    underline-position="-307"
    unicode-range="U+0020-FB02"
  />
<missing-glyph horiz-adv-x="567" 
 />
    <glyph glyph-name=".notdef" horiz-adv-x="567" 
 />
    <glyph glyph-name=".null" horiz-adv-x="0" 
 />
    <glyph glyph-name="nonmarkingreturn" horiz-adv-x="682" 
 />
    <glyph glyph-name="space" unicode=" " horiz-adv-x="567" 
 />
    <glyph glyph-name="exclam" unicode="!" horiz-adv-x="567" 
d="M391 250v-250h-213v250h213zM391 1516v-1143h-213v1143h213z" />
    <glyph glyph-name="quotedbl" unicode="&#x22;" horiz-adv-x="665" 
d="M225 909h-145l-39 607h225zM586 909h-146l-39 607h226z" />
    <glyph glyph-name="numbersign" unicode="#" 
d="M1012 590l-4 -172h-187l-59 -418h-180l57 418h-209l-59 -418h-181l58 418h-187l5 172h206l35 254h-184l4 172h205l57 418h182l-57 -418h209l57 418h183l-58 -418h168l-4 -172h-188l-35 -254h166zM698 844h-209l-34 -254h209z" />
    <glyph glyph-name="dollar" unicode="$" 
d="M479 1686h195v-230q131 -16 214 -107.5t89 -246.5h-213q-6 80 -50.5 126t-129.5 46q-82 0 -127 -59t-45 -134q0 -40 12.5 -69.5t29 -47.5t54 -35t64.5 -25t83 -23q25 -6 46 -12t58 -21.5t66 -34.5t62.5 -51.5t56 -71t38 -94.5t15.5 -121q0 -47 -8 -94t-30.5 -101t-57 -97
t-93.5 -77.5t-134 -46.5v-227h-195v227q-146 37 -238 137t-102 275h213q6 -65 29 -112t57 -71.5t69 -35t73 -10.5q100 0 152 66.5t52 166.5q0 35 -10.5 65.5t-24.5 51.5t-39 39.5t-44 29.5t-50.5 22t-47.5 15.5t-46 12.5q-97 30 -134 49q-189 95 -189 321q0 50 13.5 102.5
t43 108.5t87.5 100t136 64v230z" />
    <glyph glyph-name="percent" unicode="%" horiz-adv-x="1714" 
d="M1049 340q0 -78 54 -134t132 -56t132 56t54 134t-54 134t-132 56t-132 -56t-54 -134zM864 340q0 152 109 259.5t262 107.5t262 -107.5t109 -259.5t-109 -259.5t-262 -107.5t-262 107.5t-109 259.5zM106 1171q0 152 109 259.5t262 107.5t262 -107.5t109 -259.5t-109 -259
t-262 -107t-262 107t-109 259zM291 1171q0 -78 54 -134t132 -56t132.5 56t54.5 134t-54.5 134.5t-132.5 56.5t-132 -56.5t-54 -134.5zM1352 1516l-869 -1516h-137l868 1516h138z" />
    <glyph glyph-name="ampersand" unicode="&#x26;" horiz-adv-x="1400" 
d="M1327 932l-248 -500l305 -311l-147 -150l-264 267q-177 -267 -441 -267q-195 0 -328.5 131t-133.5 322q0 138 73 253t217 179q-72 73 -108.5 139t-36.5 162q0 167 111.5 277t271.5 110q100 0 186 -48t138.5 -137.5t52.5 -199.5q0 -241 -254 -364l201 -197l165 334h240z
M565 942q100 53 144.5 99t44.5 124q0 86 -50 131t-108 45q-64 0 -112 -48.5t-48 -135.5q0 -49 27.5 -98t101.5 -117zM825 391l-319 316q-37 -13 -70 -32t-68 -51.5t-56 -84t-21 -115.5q0 -102 65 -176t176 -74q174 0 287 205l3 6z" />
    <glyph glyph-name="quotesingle" unicode="'" horiz-adv-x="446" 
d="M295 909h-143l-41 607h225z" />
    <glyph glyph-name="parenleft" unicode="(" horiz-adv-x="833" 
d="M731 -260v-266q-83 42 -165.5 107t-165 162t-145.5 210.5t-102.5 261t-39.5 303.5q0 322 171.5 606t434.5 422v-264q-45 -40 -71.5 -65t-72 -73.5t-74 -89t-64 -103t-55.5 -123.5t-34 -141.5t-14 -166.5q0 -94 16 -182t39 -153.5t61 -130.5t69 -106t77 -87.5t70.5 -67.5
t64.5 -53z" />
    <glyph glyph-name="parenright" unicode=")" horiz-adv-x="833" 
d="M102 1280v266q84 -43 167.5 -109t166 -163.5t145 -211t101.5 -259.5t39 -301q0 -322 -171.5 -606t-434.5 -422v264q46 41 71.5 65t72 73t74.5 89t63.5 102.5t55.5 123.5t34 141.5t14 167.5q0 94 -16 181.5t-38.5 152.5t-61 130t-69 106t-77.5 88t-71 67.5t-65 54.5z" />
    <glyph glyph-name="asterisk" unicode="*" horiz-adv-x="1173" 
d="M520 1221l-2 295h144l-7 -295l279 94l45 -135l-283 -88l178 -236l-116 -84l-170 242l-170 -242l-117 84l178 236l-282 88l45 135z" />
    <glyph glyph-name="plus" unicode="+" horiz-adv-x="1228" 
d="M508 625v411h213v-411h409v-213h-409v-412h-213v412h-410v213h410z" />
    <glyph glyph-name="comma" unicode="," horiz-adv-x="567" 
d="M391 250v-227q0 -26 -2 -46t-7.5 -52t-20 -58t-37 -52.5t-60 -45.5t-86.5 -29v127q17 6 26 11.5t23 18t20.5 34t6.5 51.5v18h-76v250h213z" />
    <glyph glyph-name="hyphen" unicode="-" horiz-adv-x="573" 
d="M573 485h-573v213h573v-213z" />
    <glyph glyph-name="period" unicode="." horiz-adv-x="567" 
d="M391 0h-213v250h213v-250z" />
    <glyph glyph-name="slash" unicode="/" horiz-adv-x="1021" 
d="M317 -205h-233l590 1721h233z" />
    <glyph glyph-name="zero" unicode="0" 
d="M1059 1047v-560q0 -103 -22 -183t-89 -159q-156 -174 -383 -174q-230 0 -383 185q-48 58 -73 132t-28 115t-3 101v528q0 93 23 171.5t62.5 133t89 96.5t106.5 66t110 35.5t104 11.5q87 0 171.5 -32.5t155.5 -92.5t115 -157.5t44 -216.5zM846 487v560q0 76 -21.5 133.5
t-52 89t-70.5 51t-71 25.5t-60 6q-35 0 -70 -8t-74 -29.5t-68.5 -54.5t-48.5 -88t-19 -125v-560q0 -64 14 -116t35 -84.5t50.5 -57t55.5 -36t55.5 -18.5t44 -8t27.5 -1q119 0 205 96q24 28 39 55.5t21 59t7 52t1 58.5z" />
    <glyph glyph-name="one" unicode="1" 
d="M739 1516v-1516h-213v1321h-223v195h436z" />
    <glyph glyph-name="two" unicode="2" 
d="M1032 0h-948v178l596 606q65 65 101 130t36 147q0 72 -29 136.5t-89.5 108.5t-139.5 44q-47 0 -92 -17.5t-86 -53t-66.5 -99.5t-25.5 -146v-39h-213q-1 127 33.5 227.5t86 159t119 97t125.5 52t111 13.5q141 0 252 -70t169 -181t58 -238q0 -72 -17 -135t-51 -117
t-64.5 -90.5t-78.5 -85.5l-422 -432h635v-195z" />
    <glyph glyph-name="three" unicode="3" 
d="M45 446h213q2 -55 17.5 -99.5t36.5 -72.5t49.5 -49.5t54 -32t53.5 -17t43.5 -8t28.5 -1.5q62 0 114.5 25t86.5 65.5t52.5 89.5t18.5 98q0 121 -83.5 197t-199.5 76h-77v213h73q62 0 107.5 22t66.5 49t33 63t13.5 51t1.5 26q0 86 -57 147.5t-146 61.5q-18 0 -35.5 -2.5
t-46.5 -14.5t-51.5 -33t-42.5 -63.5t-27 -99.5h-213q6 98 42 174t83.5 118.5t107 70t105 36t84.5 8.5q179 0 294.5 -119t115.5 -301q0 -59 -11 -105t-34 -82t-42.5 -57t-52.5 -51q62 -39 105 -91t63.5 -105t28.5 -96t8 -84q0 -111 -39.5 -203.5t-107 -152.5t-156.5 -93
t-188 -33q-128 0 -239.5 59.5t-180.5 170t-70 245.5z" />
    <glyph glyph-name="four" unicode="4" 
d="M930 1516v-1084h160v-194h-160v-238h-213v238h-692v206l692 1072h213zM270 432h447v729h-4z" />
    <glyph glyph-name="five" unicode="5" 
d="M248 1516h692v-195h-516l-57 -336q27 18 43 27t64.5 22t103.5 13q149 0 265.5 -72t179 -193t62.5 -268q0 -105 -37 -203t-103 -173.5t-164.5 -121t-213.5 -45.5q-212 0 -353 136.5t-163 351.5h213q26 -132 105 -212.5t200 -80.5q120 0 211.5 96.5t91.5 235.5
q0 92 -34.5 171.5t-103 131t-156.5 51.5q-48 0 -90.5 -12.5t-69.5 -28.5t-52.5 -41t-36.5 -40t-24 -36l-184 43z" />
    <glyph glyph-name="six" unicode="6" 
d="M592 1516h252l-322 -498q58 10 90 10q139 0 251.5 -69.5t174.5 -186.5t62 -256q0 -148 -67 -273t-187.5 -198.5t-267.5 -73.5q-105 0 -194.5 35t-149 90.5t-102.5 125t-62 137t-19 128.5q0 177 115 363zM264 508q0 -143 89.5 -242.5t224.5 -99.5q131 0 220 99t89 229
q0 145 -88 242.5t-217 97.5q-130 0 -224 -96t-94 -230z" />
    <glyph glyph-name="seven" unicode="7" 
d="M145 1516h879v-195l-555 -1321h-238l572 1321h-658v195z" />
    <glyph glyph-name="eight" unicode="8" 
d="M844 836q52 -35 91.5 -80t60 -85.5t33 -85.5t15.5 -74.5t3 -57.5q0 -132 -66 -243.5t-176 -175t-238 -63.5q-89 0 -174.5 33.5t-153.5 93.5t-109.5 151t-41.5 197q0 83 20.5 151.5t57 116.5t62 72t59.5 50q-23 23 -34.5 35.5t-33 42t-32.5 55.5t-20 68t-9 89
q0 179 124 298.5t289 119.5q167 0 287.5 -123t120.5 -293q0 -62 -12 -111t-37.5 -85.5t-40.5 -53t-45 -42.5zM766 1149q0 74 -53.5 137.5t-143.5 63.5q-85 0 -141.5 -62.5t-56.5 -146.5q0 -78 53.5 -142.5t142.5 -64.5q94 0 146.5 63.5t52.5 151.5zM834 434
q0 126 -82.5 204.5t-184.5 78.5q-114 0 -190 -85.5t-76 -195.5q0 -112 78 -191t186 -79q116 0 192.5 83.5t76.5 184.5z" />
    <glyph glyph-name="nine" unicode="9" 
d="M545 0h-252l321 498q-79 -9 -88 -9q-126 0 -237 61.5t-181.5 180.5t-70.5 270q0 146 66 270t186 198.5t268 74.5q106 1 196 -34.5t149 -91.5t101.5 -125.5t61 -136.5t18.5 -126q0 -185 -116 -364zM870 1008q0 144 -89 243t-222 99t-221 -99t-88 -229q0 -137 89 -237.5
t218 -100.5q93 0 167 51.5t110 124.5t36 148z" />
    <glyph glyph-name="colon" unicode=":" horiz-adv-x="567" 
d="M391 0h-213v250h213v-250zM391 887h-213v250h213v-250z" />
    <glyph glyph-name="semicolon" unicode=";" horiz-adv-x="567" 
d="M391 250v-227q0 -26 -2 -46t-7.5 -52t-20 -58t-37 -52.5t-60 -45.5t-86.5 -29v127q17 6 26 11.5t23 18t20.5 34t6.5 51.5v18h-76v250h213zM391 887h-213v250h213v-250z" />
    <glyph glyph-name="less" unicode="&#x3c;" horiz-adv-x="1228" 
d="M1135 193v-209l-1041 446v176l1041 447v-209l-764 -326z" />
    <glyph glyph-name="equal" unicode="=" horiz-adv-x="1228" 
d="M1130 848v-213h-1032v213h1032zM1130 401v-213h-1032v213h1032z" />
    <glyph glyph-name="greater" unicode="&#x3e;" horiz-adv-x="1228" 
d="M94 193l764 325l-764 326v209l1041 -447v-176l-1041 -446v209z" />
    <glyph glyph-name="question" unicode="?" horiz-adv-x="1060" 
d="M621 389h-213q2 84 22 156.5t56 129.5t65 92.5t70 76.5q66 67 90 94.5t39.5 62t15.5 76.5q0 106 -71.5 179t-170.5 73q-126 0 -202 -110q-33 -45 -43 -136h-213q5 99 37.5 180t81 132t109.5 86t119 49t113 14q97 0 182.5 -39.5t144 -104t92.5 -147t34 -168.5
q0 -56 -11.5 -105t-25.5 -80.5t-43.5 -68t-46.5 -53.5t-55 -51q-43 -38 -74.5 -77.5t-48 -68t-28.5 -68.5t-15.5 -60.5t-9.5 -63.5zM621 250v-250h-213v250h213z" />
    <glyph glyph-name="at" unicode="@" horiz-adv-x="1556" 
d="M1051 1122h151l-86 -473q-16 -101 -16 -121q6 -53 51 -53q99 0 154.5 103t64.5 288q0 243 -154.5 381.5t-400.5 138.5q-188 0 -333 -85.5t-220.5 -228t-75.5 -316.5q0 -83 17 -163.5t62.5 -166.5t116 -150t188.5 -105.5t268 -41.5q167 0 293 37t194 86l80 -125
q-151 -84 -287.5 -119t-279.5 -35q-171 0 -311 46.5t-232 123.5t-155 180t-90 211.5t-27 223.5q8 229 112 405.5t279.5 273.5t398.5 105q206 0 368.5 -79.5t257.5 -234t95 -360.5q0 -147 -51 -273t-141.5 -201t-198.5 -75q-31 0 -65 10t-67.5 39.5t-41.5 73.5h-4
q-90 -123 -273 -123q-136 0 -227.5 102t-91.5 267q0 87 29 170.5t79.5 148.5t126.5 104.5t164 39.5q31 0 58 -3.5t49 -11.5t39.5 -15.5t32.5 -19.5t25 -20.5t19.5 -22t13.5 -19.5t11 -17l6 -12h4zM985 807q0 99 -55 143.5t-148 44.5q-99 0 -172 -84t-73 -219
q0 -98 49 -157.5t129 -59.5q127 0 198.5 94t71.5 238z" />
    <glyph glyph-name="A" unicode="A" horiz-adv-x="1400" 
d="M1376 0h-235l-168 446h-545l-168 -446h-233l575 1516h199zM506 649h391l-192 580h-5z" />
    <glyph glyph-name="B" unicode="B" horiz-adv-x="1187" 
d="M154 0v1516h393q88 0 160.5 -18t120.5 -46.5t84.5 -68t56.5 -77.5t32 -80.5t15.5 -72.5t3.5 -57q0 -59 -12.5 -107.5t-37.5 -84t-41 -53.5t-44 -42q29 -17 49 -30.5t56.5 -47.5t59.5 -70t41.5 -95t18.5 -126q0 -53 -11.5 -106.5t-46 -115.5t-88 -108.5t-146.5 -78
t-212 -31.5h-452zM375 682v-479h239q64 0 114 17.5t79.5 43.5t48.5 59.5t26 62t7 54.5q0 80 -53 150q-24 32 -54.5 52t-67.5 28t-62 10t-64 2h-213zM375 1313v-428h180q73 0 124.5 20t76 54.5t34 67.5t9.5 71q0 44 -12 79.5t-29.5 57.5t-44.5 38t-48.5 23.5t-50 11.5
t-41.5 4.5t-30 0.5h-168z" />
    <glyph glyph-name="C" unicode="C" horiz-adv-x="1601" 
d="M1554 1128h-266q-21 24 -31.5 34.5t-43 42t-64 50t-76 41.5t-98.5 34t-113 11q-116 0 -220.5 -46t-179.5 -123.5t-119 -184.5t-44 -225q0 -120 46 -229t122 -187.5t178.5 -125t212.5 -46.5q118 0 226.5 53.5t187.5 147.5h272q-61 -107 -144.5 -187.5t-175.5 -126.5
t-183.5 -68t-184.5 -22q-211 0 -390.5 108t-283.5 290.5t-104 394.5q0 162 62.5 307.5t168 248.5t249 163.5t300.5 60.5q106 0 229 -33t234 -114q48 -35 87 -71.5t68 -77t42.5 -61t35.5 -59.5z" />
    <glyph glyph-name="D" unicode="D" horiz-adv-x="1499" 
d="M133 0v1516h492q415 0 618 -279q78 -109 117 -237t39 -246q0 -154 -53 -303t-138 -232q-122 -121 -269 -170t-323 -49h-483zM354 1313v-1110h264q84 0 161 16.5t151 57.5t128 102t87 157.5t33 217.5q0 73 -17.5 146.5t-59.5 149t-103.5 133t-158.5 94t-216 36.5h-269z
" />
    <glyph glyph-name="E" unicode="E" horiz-adv-x="1064" 
d="M950 0h-817v1516h817v-203h-596v-447h596v-202h-596v-461h596v-203z" />
    <glyph glyph-name="F" unicode="F" horiz-adv-x="987" 
d="M354 0h-221v1516h766v-203h-545v-455h545v-203h-545v-655z" />
    <glyph glyph-name="G" unicode="G" horiz-adv-x="1701" 
d="M1532 1135h-258q-33 37 -62 63.5t-82.5 64t-122.5 58t-147 20.5q-154 0 -283.5 -80.5t-203.5 -215t-74 -291.5q0 -122 47.5 -231t126 -185t180.5 -120t209 -44q17 0 35.5 1t61 8.5t81.5 21t90.5 42t94.5 66.5t86 100t73 138h-706v203h958q-2 -148 -48.5 -276t-124 -219.5
t-177.5 -157.5t-210 -98t-222 -32q-162 0 -307 63t-247.5 169t-162 250t-59.5 301q0 161 60 307t163 252t247 168.5t304 62.5q132 0 258 -44.5t238.5 -138.5t183.5 -226z" />
    <glyph glyph-name="H" unicode="H" horiz-adv-x="1372" 
d="M1221 0h-222v659h-624v-659h-221v1516h221v-654h624v654h222v-1516z" />
    <glyph glyph-name="I" unicode="I" horiz-adv-x="526" 
d="M375 0h-221v1516h221v-1516z" />
    <glyph glyph-name="J" unicode="J" horiz-adv-x="997" 
d="M836 1516v-1088q0 -127 -37 -215q-50 -117 -151.5 -179.5t-229.5 -62.5q-152 0 -271.5 91.5t-146.5 240.5h227q49 -129 193 -129q61 0 109 32.5t69 96.5q16 62 16 113v1100h222z" />
    <glyph glyph-name="K" unicode="K" horiz-adv-x="1265" 
d="M1257 0h-272l-575 764h-4v-764h-222v1516h222v-752h4l575 752h272l-591 -752z" />
    <glyph glyph-name="L" unicode="L" horiz-adv-x="909" 
d="M909 0h-747v1516h221v-1313h526v-203z" />
    <glyph glyph-name="M" unicode="M" horiz-adv-x="1912" 
d="M1761 0h-221v1280h-6l-510 -1280h-133l-512 1280h-4v-1280h-221v1516h348l454 -1162l457 1162h348v-1516z" />
    <glyph glyph-name="N" unicode="N" horiz-adv-x="1511" 
d="M1358 0h-230l-749 1171h-4v-1171h-221v1516h241l738 -1154h4v1154h221v-1516z" />
    <glyph glyph-name="O" unicode="O" horiz-adv-x="1732" 
d="M1655 754q0 -154 -60.5 -297t-164 -250t-251.5 -171.5t-313 -64.5q-166 0 -313.5 64.5t-251 172.5t-163.5 252t-60 298t59 296.5t161 251t250.5 173.5t317.5 65q166 0 313 -63t251 -169.5t164.5 -252t60.5 -305.5zM1434 752q0 82 -22.5 164t-69.5 159t-112.5 136
t-160 94.5t-203.5 35.5q-113 0 -208.5 -37.5t-160.5 -98t-110.5 -138t-66.5 -156t-21 -153.5q0 -77 21 -156t67 -156.5t111 -137.5t160.5 -97t207.5 -37q113 0 209 37.5t160.5 97.5t110.5 137t67 154.5t21 151.5z" />
    <glyph glyph-name="P" unicode="P" horiz-adv-x="1144" 
d="M354 598v-598h-221v1516h438q263 0 399 -124.5t136 -334.5t-136 -334.5t-399 -124.5h-217zM354 1313v-512h217q90 0 154.5 23.5t97.5 63t47.5 81t14.5 88.5t-14.5 88.5t-47.5 81t-97.5 63t-154.5 23.5h-217z" />
    <glyph glyph-name="Q" unicode="Q" horiz-adv-x="1714" 
d="M1671 176v-205q-69 1 -127.5 11t-107 29.5t-77 35t-69.5 41.5q-210 -117 -434 -117q-158 0 -302 62t-248 168t-166 252.5t-62 308.5q0 215 102 394.5t281.5 283.5t396.5 104q163 0 308.5 -63.5t248.5 -170t163 -251t60 -301.5q0 -94 -18.5 -179.5t-53 -156t-57 -107.5
t-57.5 -86q57 -32 99.5 -42.5t119.5 -10.5zM1094 242q-153 115 -272.5 158.5t-233.5 43.5q-48 0 -83.5 -5.5t-51.5 -11t-41 -17.5q79 -110 198.5 -173t253.5 -63q61 0 111 12.5t71.5 24.5t47.5 31zM1272 362q27 33 45 60t44.5 78.5t41 117t14.5 140.5q0 114 -43 221
t-116 186.5t-177 127.5t-219 48q-154 0 -283.5 -79.5t-204.5 -216t-75 -297.5q0 -66 20 -148q116 47 289 47q315 0 664 -285z" />
    <glyph glyph-name="R" unicode="R" horiz-adv-x="1216" 
d="M1135 0h-277l-500 702h-4v-702h-221v1516h469q151 0 245 -32.5t159 -94.5q69 -66 104 -162t35 -197q0 -82 -19 -151.5t-49.5 -116.5t-71.5 -83.5t-81.5 -57t-83.5 -34t-74 -18t-55 -4.5zM354 1313v-580h152q25 0 44.5 1t58 4t69.5 11.5t70 22t68 36t55 52t39.5 73.5
t13.5 97q0 51 -18 98.5t-55.5 90t-105.5 68.5t-157 26h-234z" />
    <glyph glyph-name="S" unicode="S" horiz-adv-x="1021" 
d="M37 449h221q0 -21 4 -48.5t19 -69.5t39.5 -75t72.5 -57.5t111 -24.5q107 0 175.5 69t68.5 187q0 28 -4.5 52t-15 43.5t-20 35t-29 30t-30.5 23t-36 20t-35.5 16t-38.5 15t-35 13.5q-155 60 -212.5 90t-109.5 80q-50 49 -76 125t-26 160q0 69 26.5 139t77 132t134 101
t186.5 39q191 0 312.5 -116t121.5 -306h-221q0 60 -20 104.5t-53 68.5t-68 35t-72 11q-91 0 -147 -66t-56 -140q0 -21 4.5 -40.5t10 -34.5t17.5 -29.5t20.5 -24.5t25 -21t25 -16.5t28 -14t26 -11t25.5 -9.5t21 -8q18 -7 58.5 -21.5t63.5 -23t61.5 -25.5t62.5 -31t57 -37
t53.5 -46.5t43.5 -57t35.5 -70t21 -83.5t8.5 -101q0 -200 -129 -329.5t-336 -129.5q-65 0 -129 17t-125.5 54.5t-108.5 92t-75.5 135.5t-28.5 179z" />
    <glyph glyph-name="T" unicode="T" horiz-adv-x="833" 
d="M526 0h-221v1313h-291v203h803v-203h-291v-1313z" />
    <glyph glyph-name="U" unicode="U" horiz-adv-x="1316" 
d="M1165 1516v-1027q0 -242 -153 -389q-155 -129 -355 -129q-199 0 -354 129q-153 147 -153 389v1027h221v-1020q0 -80 22.5 -141t54 -94t73.5 -54t74 -27t62 -6t62 6t74 27t74 54t54.5 94t22.5 141v1020h221z" />
    <glyph glyph-name="V" unicode="V" horiz-adv-x="1400" 
d="M768 0h-133l-610 1516h237l440 -1137l441 1137h233z" />
    <glyph glyph-name="W" unicode="W" horiz-adv-x="1855" 
d="M1399 0h-195l-274 1059h-4l-275 -1059h-194l-424 1516h229l289 -1141h4l293 1141h162l288 -1133h5l294 1133h226z" />
    <glyph glyph-name="X" unicode="X" horiz-adv-x="1327" 
d="M1038 0l-376 578l-381 -578h-258l501 760l-501 756h264l375 -574l378 574h263l-506 -756l501 -760h-260z" />
    <glyph glyph-name="Y" unicode="Y" horiz-adv-x="1214" 
d="M719 0h-221v547l-471 969h247l334 -711l332 711h246l-467 -969v-547z" />
    <glyph glyph-name="Z" unicode="Z" horiz-adv-x="946" 
d="M940 0h-932v203l658 1110h-623v203h870v-203l-653 -1110h680v-203z" />
    <glyph glyph-name="bracketleft" unicode="[" horiz-adv-x="833" 
d="M674 -274v-252q-180 71 -299 224t-119 331v927q0 99 26.5 186.5t68 150t98 114.5t111.5 84t114 55v-248q-64 -40 -106.5 -86.5t-61 -96.5t-25 -90t-6.5 -91v-830q0 -34 1 -54.5t6 -59t18 -68t34 -65.5t56.5 -69t83.5 -62z" />
    <glyph glyph-name="backslash" unicode="\" horiz-adv-x="1021" 
d="M705 -205l-590 1721h233l590 -1721h-233z" />
    <glyph glyph-name="bracketright" unicode="]" horiz-adv-x="833" 
d="M160 -526v252q48 29 83.5 62t56.5 69t33.5 65.5t17.5 68t6 58.5t1 55v830q0 51 -6 91t-25 90t-61 96.5t-106 86.5v248q59 -23 114 -55t111.5 -84t98 -114.5t68 -150t26.5 -186.5v-927q0 -178 -119 -331t-299 -224z" />
    <glyph glyph-name="asciicircum" unicode="^" horiz-adv-x="1228" 
d="M348 727h-213l383 789h193l383 -789h-213l-267 573z" />
    <glyph glyph-name="underscore" unicode="_" horiz-adv-x="1024" 
d="M1024 -256h-1024v102h1024v-102z" />
    <glyph glyph-name="grave" unicode="`" 
d="M340 1667l461 -252l-90 -164l-457 262z" />
    <glyph glyph-name="a" unicode="a" horiz-adv-x="1419" 
d="M1282 0h-213v176h-4q-59 -101 -162 -153t-223 -52q-139 0 -255 50.5t-190.5 134t-115.5 189t-41 218.5q0 85 23 169t72 162.5t118.5 138.5t170 96t218.5 36q121 0 223 -49t162 -141h4v160h213v-1135zM1073 565q0 179 -113 292.5t-280 113.5q-94 0 -170.5 -38t-123 -98.5
t-71 -130.5t-24.5 -139q0 -103 49 -194t139 -148t199 -57q166 0 280.5 117.5t114.5 281.5z" />
    <glyph glyph-name="b" unicode="b" horiz-adv-x="1409" 
d="M348 0h-211v1516h213v-539h4q67 94 168.5 141t220.5 47q112 0 218.5 -45t188.5 -122.5t131.5 -190t49.5 -240.5q0 -162 -76 -299t-210 -217t-297 -80q-61 0 -123.5 14.5t-140.5 60t-132 118.5h-4v-164zM344 571q0 -123 58 -217.5t145 -141t184 -46.5q76 0 147 31.5
t123.5 84.5t84.5 128t32 157q0 163 -111.5 283.5t-275.5 120.5q-112 0 -202.5 -58.5t-137.5 -149t-47 -192.5z" />
    <glyph glyph-name="c" unicode="c" horiz-adv-x="1284" 
d="M1219 758h-236q-104 213 -319 213q-98 0 -173 -38t-117 -99.5t-62.5 -128.5t-20.5 -136q0 -75 24 -146t68 -129t116 -93t160 -35q114 0 197 57.5t125 151.5h238q-64 -187 -216.5 -295.5t-343.5 -108.5q-109 0 -203.5 34t-162.5 92t-117.5 134.5t-73.5 162.5t-24 175
q0 115 41.5 222.5t115.5 190.5t185.5 133t241.5 50q115 0 216 -39.5t168.5 -102t111.5 -130.5t61 -135z" />
    <glyph glyph-name="d" unicode="d" horiz-adv-x="1406" 
d="M1270 0h-197v162h-4q-67 -93 -171 -142t-230 -49q-137 0 -250.5 50.5t-186.5 134t-113 189t-40 218.5q0 85 22.5 169t70.5 162.5t115.5 138.5t166.5 96t215 36q118 0 220.5 -45.5t164.5 -124.5h4v521h213v-1516zM1073 565q0 179 -113 292.5t-280 113.5q-94 0 -170.5 -38
t-123 -98.5t-71 -130.5t-24.5 -139q0 -103 49 -194t139 -148t199 -57q166 0 280.5 117.5t114.5 281.5z" />
    <glyph glyph-name="e" unicode="e" horiz-adv-x="1314" 
d="M1233 475h-940q19 -79 60 -140t93.5 -97t108 -54t111.5 -18q111 0 196 55t127 135h213q-39 -105 -105.5 -183t-143.5 -120t-151 -62t-145 -20q-158 0 -291 82t-209.5 219.5t-76.5 296.5q0 167 78.5 304t212 214.5t291.5 77.5q152 0 284 -75t212 -209.5t81 -296.5
q0 -67 -6 -109zM293 639h733q-4 62 -33.5 122t-76.5 106.5t-115 75t-142 28.5q-148 0 -253 -101t-113 -231z" />
    <glyph glyph-name="f" unicode="f" horiz-adv-x="567" 
d="M356 0h-213v940h-100v195h100v55q0 173 136 264q66 39 121 50.5t155 11.5v-195q-199 0 -199 -131v-55h199v-195h-199v-940z" />
    <glyph glyph-name="g" unicode="g" horiz-adv-x="1427" 
d="M1292 1135v-981q0 -281 -162.5 -440.5t-451.5 -159.5q-194 0 -340.5 96.5t-218.5 261.5h237q120 -164 324 -164q88 1 158 23t125.5 68t85.5 125t30 186h-4q-15 -20 -32.5 -39t-53 -46t-75.5 -46.5t-101 -33.5t-129 -14q-109 0 -206.5 36t-169 96t-124.5 137.5
t-79.5 162.5t-26.5 168q0 78 23.5 159t73.5 159t120 139.5t172 99t221 37.5q120 0 225 -46t166 -115v131h213zM1079 565q0 91 -29 164t-72 117t-98.5 73.5t-104 40.5t-91.5 11q-166 0 -279.5 -120t-113.5 -284q0 -103 49.5 -194.5t140.5 -149t201 -57.5q80 0 148 27.5
t112.5 71t76.5 97.5t46 105.5t14 97.5z" />
    <glyph glyph-name="h" unicode="h" horiz-adv-x="1273" 
d="M1143 0h-213v616q0 29 -0.5 48t-6 60t-15.5 69.5t-31 64.5t-50 58.5t-75.5 38.5t-104.5 16q-136 0 -217.5 -93t-81.5 -260v-618h-213v1516h213v-502h4q101 151 318 151q131 0 235 -53t166 -149q69 -114 72 -291v-672z" />
    <glyph glyph-name="i" unicode="i" horiz-adv-x="487" 
d="M350 1135v-1135h-213v1135h213zM350 1516v-250h-213v250h213z" />
    <glyph glyph-name="j" unicode="j" horiz-adv-x="509" 
d="M377 1135v-1102q0 -57 -0.5 -84t-4 -70t-11 -66.5t-20.5 -54.5t-34 -56t-51 -50q-54 -46 -116.5 -72t-116.5 -26v223q26 2 46.5 7.5t35 17t25 22.5t17 32t10 35.5t5 43.5t2 46t0.5 52v1102h213zM377 1516v-250h-213v250h213z" />
    <glyph glyph-name="k" unicode="k" horiz-adv-x="1118" 
d="M778 1135h252l-412 -535l478 -600h-267l-454 588h-4v-588h-213v1516h213v-928h4z" />
    <glyph glyph-name="l" unicode="l" horiz-adv-x="487" 
d="M350 1516v-1516h-213v1516h213z" />
    <glyph glyph-name="m" unicode="m" horiz-adv-x="1988" 
d="M1853 0h-213v631q0 27 -1.5 49.5t-7 59t-16 66t-30.5 61.5t-47.5 54t-70 36t-95.5 14q-54 0 -97.5 -13.5t-71 -34t-47.5 -51t-30 -58.5t-15.5 -63.5t-7 -58.5t-1.5 -50v-9v-633h-213v631q2 79 -7 129.5t-40 103.5q-69 107 -211 107q-45 0 -83.5 -9t-65.5 -23.5t-48.5 -37
t-35 -43.5t-23.5 -50t-14.5 -49.5t-7 -49.5t-3 -42t-0.5 -34v-633h-213v1135h197v-123h4q1 1 13 15t16.5 19t19 19.5t23.5 21t27 19t33 19.5t38 16t45.5 13t51 7.5t59.5 3.5q110 0 210.5 -50.5t141.5 -139.5q17 27 29 43t45.5 47.5t70 50t97.5 34t133 15.5q140 0 241 -53.5
t158 -150.5q63 -114 63 -277v-684z" />
    <glyph glyph-name="n" unicode="n" horiz-adv-x="1277" 
d="M1143 0h-213v616q0 29 -0.5 48t-6 60t-15.5 69.5t-31 64.5t-50 58.5t-75.5 38.5t-104.5 16q-136 0 -217.5 -93t-81.5 -260v-618h-213v1135h199v-121h4q114 151 332 151q131 0 235 -53t166 -149q69 -114 72 -291v-672z" />
    <glyph glyph-name="o" unicode="o" horiz-adv-x="1382" 
d="M1303 571q0 -83 -26.5 -168t-79 -162.5t-124.5 -137.5t-171.5 -96t-211.5 -36q-138 0 -255.5 54t-194 140.5t-119.5 193.5t-43 216q0 115 46.5 222.5t127 188.5t195 130t243.5 49q126 0 240.5 -47.5t195.5 -127.5t129 -189.5t48 -229.5zM1090 571q0 101 -49 192
t-142 149.5t-209 58.5t-209 -58.5t-141.5 -150t-48.5 -193.5q0 -77 29.5 -149.5t80.5 -129t126.5 -90.5t162.5 -34q169 0 284.5 120.5t115.5 284.5z" />
    <glyph glyph-name="p" unicode="p" horiz-adv-x="1404" 
d="M137 -379v1514h195v-174h4q72 104 179 154t224 50q112 0 208.5 -34.5t165 -93.5t117.5 -137.5t73 -166.5t24 -180q0 -109 -40 -212.5t-111.5 -186t-181.5 -133t-240 -50.5q-84 0 -155.5 19.5t-119 51t-77 61.5t-48.5 61h-4v-543h-213zM1114 565q0 102 -48 194.5t-139 152
t-202 59.5q-108 0 -196 -57t-135.5 -148.5t-47.5 -196.5q0 -171 111.5 -287t273.5 -116q101 0 188 49t141 141.5t54 208.5z" />
    <glyph glyph-name="q" unicode="q" horiz-adv-x="1406" 
d="M1270 1135v-1514h-213v537h-4q-58 -86 -160.5 -136.5t-218.5 -50.5q-135 0 -249.5 52t-188.5 137t-115 191t-41 218q0 114 42 221.5t117 191t187 133.5t242 50q73 0 139.5 -17t110 -40.5t79 -51t51.5 -45.5t21 -28h4v152h197zM1075 563q0 170 -111.5 289t-281.5 119
q-115 0 -205.5 -57t-137 -148t-46.5 -197q0 -108 48 -199.5t139 -147.5t206 -56q167 0 278 118.5t111 278.5z" />
    <glyph glyph-name="r" unicode="r" horiz-adv-x="655" 
d="M350 0h-213v1135h199v-103h4q26 36 61 62.5t63.5 39t67 20t55 9t42.5 2.5v-219q-28 0 -73.5 -11t-80.5 -30q-125 -68 -125 -284v-621z" />
    <glyph glyph-name="s" unicode="s" horiz-adv-x="868" 
d="M797 834h-213q-9 67 -47.5 102t-98.5 35q-59 0 -96 -33.5t-37 -87.5q0 -27 10.5 -49t23.5 -35t40.5 -26.5t46 -19.5l55.5 -18q27 -8 35.5 -11t42 -15t51 -21.5t49.5 -28t51 -37t43.5 -46t37.5 -57.5t22.5 -69t9.5 -83q0 -156 -102.5 -259.5t-278.5 -103.5q-47 0 -97 11.5
t-105.5 41t-99 73t-71.5 115.5t-28 161h213q6 -97 55 -152t137 -55q73 0 118.5 42.5t45.5 113.5q0 36 -14 63t-45 47.5t-59.5 33t-79.5 30.5q-7 3 -23 8q-124 45 -180 87q-117 88 -117 247q0 131 100.5 229t256.5 98q41 0 85 -10t91 -34.5t84 -61t61.5 -95t26.5 -130.5z" />
    <glyph glyph-name="t" unicode="t" horiz-adv-x="567" 
d="M375 940v-940h-213v940h-154v195h154v381h213v-381h186v-195h-186z" />
    <glyph glyph-name="u" unicode="u" horiz-adv-x="1277" 
d="M135 1135h213v-615q0 -102 21.5 -173.5t61.5 -109.5t88.5 -54.5t111.5 -16.5q137 0 217 90t80 270v609h213v-1135h-195v123h-4q-42 -72 -133 -112t-201 -40q-194 0 -323 113q-74 65 -112 168.5t-38 267.5v615z" />
    <glyph glyph-name="v" unicode="v" horiz-adv-x="1099" 
d="M1073 1135l-446 -1135h-150l-450 1135h227l297 -811h4l291 811h227z" />
    <glyph glyph-name="w" unicode="w" horiz-adv-x="1628" 
d="M1602 1135l-420 -1135h-119l-246 764h-4l-246 -764h-116l-424 1135h227l252 -738h4l235 738h140l235 -738h4l250 738h228z" />
    <glyph glyph-name="x" unicode="x" horiz-adv-x="1060" 
d="M774 1135h258l-370 -553l395 -582h-250l-281 403l-274 -403h-248l393 582l-379 553h258l250 -373z" />
    <glyph glyph-name="y" unicode="y" horiz-adv-x="1175" 
d="M1155 1135l-627 -1514h-221l166 402l-453 1112h230l334 -881l342 881h229z" />
    <glyph glyph-name="z" unicode="z" horiz-adv-x="833" 
d="M59 1135h725v-207l-514 -733h557v-195h-821v166l545 774h-492v195z" />
    <glyph glyph-name="braceleft" unicode="{" horiz-adv-x="681" 
d="M29 473v176q21 0 45 5.5t49.5 18.5t46 32t34 48.5t13.5 65.5v420q0 67 25 121.5t66 87.5t90 50.5t100 17.5h133v-162h-90q-35 0 -58.5 -13t-34 -37t-14.5 -47t-4 -53v-413q0 -60 -22.5 -106t-57 -70t-65 -35.5t-58.5 -14.5v-6q24 -3 45 -8.5t52 -22.5t52.5 -41
t37.5 -68.5t16 -101.5v-411q0 -150 111 -150h90v-162h-133q-51 0 -100 17.5t-90 50.5t-66 87.5t-25 121.5v418q0 48 -19.5 86t-50 58t-61 30t-57.5 10z" />
    <glyph glyph-name="bar" unicode="|" 
d="M453 1516h231v-1721h-231v1721z" />
    <glyph glyph-name="braceright" unicode="}" horiz-adv-x="681" 
d="M653 637v-176q-21 0 -45 -5.5t-49.5 -18.5t-46 -32t-34 -48.5t-13.5 -65.5v-420q0 -67 -25 -121.5t-66 -87.5t-90 -50.5t-100 -17.5h-133v162h90q35 0 58.5 13t34 37t14.5 47t4 53v413q0 60 22.5 106t57 70t65 35.5t58.5 14.5v6q-24 3 -45 8.5t-52 22.5t-52.5 41
t-37.5 68.5t-16 101.5v411q0 150 -111 150h-90v162h133q51 0 100 -17.5t90 -50.5t66 -87.5t25 -121.5v-418q0 -48 19.5 -86t50 -58t61 -30t57.5 -10z" />
    <glyph glyph-name="asciitilde" unicode="~" horiz-adv-x="1228" 
d="M1014 694l73 -168q-23 -32 -38.5 -52t-41 -46.5t-49.5 -41t-57 -25.5t-70 -11q-52 0 -99 17t-109 51q-127 71 -236 71q-105 0 -172 -147l-74 168q92 176 256 176q83 0 228 -65q14 -6 44.5 -20t47.5 -21t40.5 -16t42 -13t34.5 -4q29 0 55 11.5t49.5 36t38 44.5t37.5 55z
" />
    <glyph glyph-name="exclamdown" unicode="&#xa1;" horiz-adv-x="567" 
d="M389 758v-1137h-213v1137h213zM389 1137v-250h-213v250h213z" />
    <glyph glyph-name="cent" unicode="&#xa2;" 
d="M813 653h240q-43 -123 -141.5 -202.5t-231.5 -108.5v-201h-195v201q-98 22 -173.5 67.5t-118 97.5t-70 115.5t-36.5 114t-9 99.5q0 178 108.5 312.5t298.5 170.5v197h195v-197q138 -21 235.5 -106.5t143.5 -219.5h-244q-25 50 -83.5 85.5t-145.5 35.5q-60 0 -110.5 -18.5
t-84 -48.5t-56.5 -68.5t-33.5 -77t-10.5 -76.5q0 -111 81 -197.5t214 -86.5q149 0 227 112z" />
    <glyph glyph-name="sterling" unicode="&#xa3;" 
d="M877 557h229q12 -66 12 -113q0 -60 -12.5 -117.5t-46 -118t-84 -105.5t-134 -74t-188.5 -29h-567v195h270q41 76 43 178q0 195 -151 297h-230v194h82q-24 41 -35.5 81.5t-11.5 103.5q0 100 33.5 189.5t96 157.5t159 108t213.5 40q112 0 213.5 -44.5t180 -139.5
t104.5 -225h-232q-65 215 -272 215q-129 0 -206 -88t-77 -213q0 -51 15 -92t27 -56t34 -37h449v-194h-287q108 -94 108 -297q0 -72 -26 -178h67q58 0 104 16.5t73 42t44.5 59.5t24 65.5t6.5 63.5q0 54 -28 115z" />
    <glyph glyph-name="currency" unicode="&#xa4;" 
d="M55 276l146 142q-74 108 -74 244q3 135 74 243l-144 137l127 134l144 -144q96 68 243 68q132 0 238 -70l143 144l131 -130l-141 -139q69 -117 66 -243q3 -136 -66 -240l141 -143l-131 -132l-143 142q-108 -70 -238 -70t-243 72l-144 -144zM322 659q0 -101 72 -173
t173 -72t173.5 72t72.5 173t-72.5 173.5t-173.5 72.5t-173 -72.5t-72 -173.5z" />
    <glyph glyph-name="yen" unicode="&#xa5;" 
d="M754 819l-80 -145v-88h422v-176h-422v-410h-213v410h-420v176h420v88l-80 145h-340v176h252l-293 521h231l336 -611l338 611h232l-295 -521h254v-176h-342z" />
    <glyph glyph-name="brokenbar" unicode="&#xa6;" 
d="M453 1516h231v-689h-231v689zM453 483h231v-688h-231v688z" />
    <glyph glyph-name="section" unicode="&#xa7;" horiz-adv-x="1173" 
d="M1004 1157h-213q-34 184 -195 184q-56 0 -95.5 -17.5t-58 -46t-26.5 -53.5t-8 -50q0 -31 12.5 -57t36.5 -46t44 -32t50 -27l278 -146q31 -16 47 -24.5t48.5 -28.5t51.5 -36.5t44.5 -43.5t39.5 -54t24 -63.5t10 -76.5q0 -53 -14 -100.5t-32.5 -79t-47.5 -61.5t-47.5 -44
t-43.5 -31q121 -106 121 -264q0 -185 -128 -299.5t-314 -114.5q-118 0 -216.5 49.5t-163 151.5t-71.5 242h213q8 -109 69.5 -174.5t174.5 -65.5q108 0 165.5 59.5t57.5 145.5q0 26 -5 45t-21.5 46t-56 56.5t-101.5 61.5l-314 162q-41 22 -61.5 34t-59.5 43t-59.5 62
t-37.5 81.5t-17 110.5q0 20 1 37.5t11.5 58t28.5 74t56.5 75.5t92.5 73q-22 31 -35.5 53t-28.5 68t-15 94q0 57 23 116.5t67.5 114.5t123.5 90t179 35q51 0 100 -10t103 -37t96.5 -69t74.5 -112t42 -159zM743 680l-342 174q-49 -32 -76.5 -80t-27.5 -100q0 -63 34.5 -104
t69.5 -58l367 -188q38 32 58 52.5t37.5 57t17.5 78.5q0 60 -32.5 95t-105.5 73z" />
    <glyph glyph-name="dieresis" unicode="&#xa8;" 
d="M621 1552h213v-249h-213v249zM303 1552h213v-249h-213v249z" />
    <glyph glyph-name="copyright" unicode="&#xa9;" horiz-adv-x="1638" 
d="M1225 915h-154q-54 166 -240 166q-122 0 -204 -91t-82 -230q0 -150 81.5 -236t204.5 -86q191 0 240 166h154q-14 -128 -124.5 -219.5t-269.5 -91.5q-198 0 -319 132t-121 335t121 335t319 132q159 0 269.5 -92t124.5 -220zM821 1540q160 0 305 -62.5t249 -167.5
t165.5 -249.5t61.5 -302.5q0 -160 -62.5 -305t-167.5 -249.5t-249.5 -166.5t-301.5 -62q-161 0 -306.5 62.5t-250 168t-166 250t-61.5 302.5q0 157 61 301.5t165.5 250t250 168t307.5 62.5zM819 1384q-172 0 -315 -85.5t-223 -229t-80 -311.5q0 -127 48.5 -243t130.5 -200
t197 -134t242 -50q168 0 310.5 83.5t225.5 228t83 315.5q0 168 -81 312t-224 229t-314 85z" />
    <glyph glyph-name="ordfeminine" unicode="&#xaa;" horiz-adv-x="788" 
d="M709 1528v-631h-164v72h-4q-19 -34 -70 -61t-113 -27q-150 0 -240.5 98t-90.5 231q0 60 21 117.5t61 107t105.5 79.5t147.5 30q58 0 107 -26t72 -62h4v72h164zM547 1212q0 77 -53 128t-132 51q-81 0 -126.5 -56t-45.5 -125q0 -70 49 -123t121 -53q81 0 134 48t53 130z
" />
    <glyph glyph-name="guillemotleft" unicode="&#xab;" horiz-adv-x="757" 
d="M690 973v-232l-153 -151l153 -152v-229l-280 274v211zM348 973v-232l-153 -151l153 -152v-229l-280 274v211z" />
    <glyph glyph-name="logicalnot" unicode="&#xac;" horiz-adv-x="1228" 
d="M918 221v414h-820v213h1032v-627h-212z" />
    <glyph glyph-name="registered" unicode="&#xae;" horiz-adv-x="1638" 
d="M485 1198h377q20 0 35.5 -0.5t50.5 -5.5t62 -13.5t60.5 -26.5t55.5 -43t37 -65t15 -90q0 -80 -40 -138t-126 -79v-4q86 -25 116 -76t33 -147q6 -118 10 -149t19 -58h-154q-13 21 -18 52.5t-8 113.5q-2 56 -10 88.5t-29 56t-56 33.5t-94 15h-182v-359h-154v895zM639 1053
v-248h184q23 0 37.5 1t42 4.5t45.5 12.5t37 24t29 41t10 60q-4 33 -21 55.5t-45 32.5t-54 13.5t-60 3.5h-205zM821 1540q160 0 305 -62.5t249 -167.5t165.5 -249.5t61.5 -302.5q0 -160 -62.5 -305t-167.5 -249.5t-249.5 -166.5t-301.5 -62q-161 0 -306.5 62.5t-250 168
t-166 250t-61.5 302.5q0 157 61 301.5t165.5 250t250 168t307.5 62.5zM819 1384q-172 0 -315 -85.5t-223 -229t-80 -311.5q0 -127 48.5 -243t130.5 -200t197 -134t242 -50q168 0 310.5 83.5t225.5 228t83 315.5q0 168 -81 312t-224 229t-314 85z" />
    <glyph glyph-name="macron" unicode="&#xaf;" 
d="M932 1350h-727v153h727v-153z" />
    <glyph glyph-name="degree" unicode="&#xb0;" horiz-adv-x="819" 
d="M410 993q68 0 116.5 52t48.5 122q0 68 -48.5 119t-116.5 51t-117 -51t-49 -119q0 -70 49 -122t117 -52zM410 872q-123 0 -208 85t-85 208t85 208t208 85t207.5 -85t84.5 -208t-84.5 -208t-207.5 -85z" />
    <glyph glyph-name="plusminus" unicode="&#xb1;" horiz-adv-x="1228" 
d="M508 786v332h213v-332h409v-213h-409v-331h-213v331h-410v213h410zM98 -106v212h1032v-212h-1032z" />
    <glyph glyph-name="twosuperior" unicode="&#xb2;" horiz-adv-x="718" 
d="M651 606h-594v127l349 352q37 37 58 71.5t21 80.5q0 56 -35.5 99.5t-95.5 43.5q-63 0 -101 -42.5t-38 -104.5v-37h-164v41q0 118 84.5 208.5t212.5 90.5q129 0 215 -89t86 -210q0 -42 -10 -78.5t-31.5 -69.5t-36 -51t-43.5 -49l-225 -227h348v-156z" />
    <glyph glyph-name="threesuperior" unicode="&#xb3;" horiz-adv-x="718" 
d="M33 885h164q3 -38 16.5 -66.5t30 -42.5t38.5 -22.5t35.5 -10.5t26.5 -2q65 0 102 41.5t37 98.5q0 64 -42.5 102.5t-104.5 38.5h-53v156h51q31 0 53 11t32 24t16 31.5t6.5 25.5t0.5 14q0 41 -25 68.5t-73 27.5q-36 0 -64.5 -23.5t-31.5 -78.5h-164q0 131 98 203
q74 55 162 55q62 0 120.5 -28.5t100 -91t41.5 -144.5q0 -43 -15 -79.5t-28.5 -51.5t-38.5 -39q65 -38 94 -91.5t29 -129.5q0 -130 -94 -212.5t-217 -82.5q-74 0 -142 33.5t-114.5 103.5t-46.5 162z" />
    <glyph glyph-name="acute" unicode="&#xb4;" 
d="M422 1251l-86 154l457 262l90 -166z" />
    <glyph glyph-name="mu" unicode="&#xb5;" horiz-adv-x="1277" 
d="M152 -379v1514h213v-553q0 -205 47 -291q28 -54 85 -89.5t130 -35.5q286 0 286 438v531h213v-1135h-213v123h-4q-35 -56 -67 -83q-81 -69 -215 -69q-79 0 -148 29.5t-110 77.5h-4v-457h-213z" />
    <glyph glyph-name="paragraph" unicode="&#xb6;" horiz-adv-x="1306" 
d="M453 -391v1093q-211 0 -330 97t-119 262q0 105 36 179t104 115.5t154 60t198 18.5h600v-1825h-213v1661h-217v-1661h-213z" />
    <glyph glyph-name="periodcentered" unicode="&#xb7;" horiz-adv-x="567" 
d="M377 410h-187v221h187v-221z" />
    <glyph glyph-name="cedilla" unicode="&#xb8;" 
d="M598 0l-43 -139q6 0 20.5 1t20.5 1q68 0 118 -48t50 -124q0 -78 -54 -136.5t-147 -58.5q-43 0 -82.5 16.5t-70.5 56t-37 95.5h108q4 -12 8.5 -20t13.5 -19.5t25 -17.5t37 -6q37 0 61.5 22.5t24.5 61.5q0 37 -25.5 58t-60.5 21q-36 0 -69 -28l-70 65l66 199h106z" />
    <glyph glyph-name="onesuperior" unicode="&#xb9;" horiz-adv-x="718" 
d="M489 1516v-910h-163v754h-127v156h290z" />
    <glyph glyph-name="ordmasculine" unicode="&#xba;" horiz-adv-x="788" 
d="M733 1214q0 -59 -23.5 -117.5t-66 -107t-108 -78.5t-142.5 -30q-101 0 -180.5 51t-119.5 127t-40 158q0 132 97.5 229.5t242.5 97.5q142 0 241 -97t99 -233zM569 1214q0 70 -49.5 123.5t-126.5 53.5t-126.5 -53.5t-49.5 -125.5q0 -70 50.5 -124t125.5 -54t125.5 54
t50.5 126z" />
    <glyph glyph-name="guillemotright" unicode="&#xbb;" horiz-adv-x="757" 
d="M68 741v232l280 -279v-211l-280 -274v229l153 152zM410 741v232l280 -279v-211l-280 -274v229l153 152z" />
    <glyph glyph-name="onequarter" unicode="&#xbc;" horiz-adv-x="1433" 
d="M410 0h-150l682 1516h150zM1303 909v-628h98v-140h-98v-141h-144v141h-422v142l426 626h140zM907 281h252v389h-4zM324 1516v-910h-164v754h-127v156h291z" />
    <glyph glyph-name="onehalf" unicode="&#xbd;" horiz-adv-x="1462" 
d="M324 1516v-910h-164v754h-127v156h291zM356 0h-149l688 1516h149zM1430 0h-594v127l348 352q25 25 39.5 42.5t27.5 47.5t13 62q0 56 -35.5 99.5t-95.5 43.5q-63 0 -101.5 -42.5t-38.5 -104.5v-37h-164v41q0 118 84.5 208.5t212.5 90.5q129 0 215 -89t86 -210
q0 -55 -21 -106t-41 -76.5t-58 -65.5l-226 -227h349v-156z" />
    <glyph glyph-name="threequarters" unicode="&#xbe;" horiz-adv-x="1599" 
d="M575 0h-149l682 1516h149zM1468 909v-628h99v-140h-99v-141h-143v141h-422v142l426 626h139zM1073 281h252v389h-4zM33 885h164q3 -38 16.5 -66.5t30 -42.5t38.5 -22.5t35.5 -10.5t26.5 -2q65 0 102 41.5t37 98.5q0 64 -42.5 102.5t-104.5 38.5h-53v156h51q31 0 53 11
t32 24t16 31.5t6.5 25.5t0.5 14q0 41 -25 68.5t-73 27.5q-36 0 -64.5 -23.5t-31.5 -78.5h-164q0 131 98 203q74 55 162 55q62 0 120.5 -28.5t100 -91t41.5 -144.5q0 -43 -15 -79.5t-28.5 -51.5t-38.5 -39q65 -38 94 -91.5t29 -129.5q0 -130 -94 -212.5t-217 -82.5
q-74 0 -142 33.5t-114.5 103.5t-46.5 162z" />
    <glyph glyph-name="questiondown" unicode="&#xbf;" horiz-adv-x="1060" 
d="M440 748h213q-2 -84 -22 -156.5t-56 -129.5t-65 -92.5t-70 -76.5q-92 -93 -118.5 -133.5t-26.5 -100.5q0 -106 71.5 -179t170.5 -73q125 0 202 111q21 29 29.5 58.5t13.5 76.5h213q-5 -99 -37.5 -180t-81 -132t-109.5 -86t-119 -49t-113 -14q-97 0 -182.5 39.5t-144 104
t-92.5 147t-34 168.5q0 56 11.5 105t25.5 81t43.5 68.5t47 53.5t54.5 51q43 38 74.5 77.5t48 68t28.5 68.5t15.5 60.5t9.5 63.5zM440 887v250h213v-250h-213z" />
    <glyph glyph-name="Agrave" unicode="&#xc0;" horiz-adv-x="1400" 
d="M1376 0h-235l-168 446h-545l-168 -446h-233l575 1516h199zM506 649h391l-192 580h-5zM473 1997l461 -252l-90 -164l-457 262z" />
    <glyph glyph-name="Aacute" unicode="&#xc1;" horiz-adv-x="1400" 
d="M1376 0h-235l-168 446h-545l-168 -446h-233l575 1516h199zM506 649h391l-192 580h-5zM555 1581l-86 154l457 262l90 -166z" />
    <glyph glyph-name="Acircumflex" unicode="&#xc2;" horiz-adv-x="1400" 
d="M1376 0h-235l-168 446h-545l-168 -446h-233l575 1516h199zM506 649h391l-192 580h-5zM1090 1624h-244l-141 141l-148 -141h-244l285 277h205z" />
    <glyph glyph-name="Atilde" unicode="&#xc3;" horiz-adv-x="1400" 
d="M1376 0h-235l-168 446h-545l-168 -446h-233l575 1516h199zM506 649h391l-192 580h-5zM422 1651l-96 133q56 36 101 55t65 22t45 3q23 0 145.5 -28t142.5 -28q32 0 59.5 10t104.5 48l88 -129q-114 -95 -223 -95q-24 0 -146.5 27t-142.5 27q-26 0 -52 -7t-42.5 -14.5
t-48.5 -23.5z" />
    <glyph glyph-name="Adieresis" unicode="&#xc4;" horiz-adv-x="1400" 
d="M1376 0h-235l-168 446h-545l-168 -446h-233l575 1516h199zM506 649h391l-192 580h-5zM754 1882h213v-250h-213v250zM436 1882h213v-250h-213v250z" />
    <glyph glyph-name="Aring" unicode="&#xc5;" horiz-adv-x="1400" 
d="M1376 0h-235l-168 446h-545l-168 -446h-233l575 1516h199zM506 649h391l-192 580h-5zM928 1784q0 -92 -67 -158.5t-161 -66.5q-92 0 -158.5 66.5t-66.5 158.5q0 94 66.5 160.5t158.5 66.5q94 0 161 -66.5t67 -160.5zM807 1784q0 44 -31.5 75t-75.5 31q-43 0 -73.5 -31
t-30.5 -75q0 -43 30.5 -74t73.5 -31q44 0 75.5 31t31.5 74z" />
    <glyph glyph-name="AE" unicode="&#xc6;" horiz-adv-x="1904" 
d="M1018 1516h756v-203h-517v-447h517v-202h-517v-461h517v-203h-738v420h-499l-277 -420h-260zM682 623h354v565h-2h-4z" />
    <glyph glyph-name="Ccedilla" unicode="&#xc7;" horiz-adv-x="1601" 
d="M633 -336h108q4 -12 8.5 -20t13.5 -19.5t25 -17.5t37 -6q37 0 61.5 22.5t24.5 61.5q0 37 -25.5 58t-60.5 21q-36 0 -69 -28l-70 65l59 181q-186 26 -339 137t-240.5 281.5t-87.5 363.5q0 162 62.5 307.5t168 248.5t249 163.5t300.5 60.5q106 0 229 -33t234 -114
q48 -35 87 -71.5t68 -77t42.5 -61t35.5 -59.5h-266q-21 24 -31.5 34.5t-43 42t-64 50t-76 41.5t-98.5 34t-113 11q-116 0 -220.5 -46t-179.5 -123.5t-119 -184.5t-44 -225q0 -120 46 -229t122 -187.5t178.5 -125t212.5 -46.5q118 0 226.5 53.5t187.5 147.5h272
q-61 -107 -144.5 -187.5t-175.5 -126.5t-183.5 -68t-184.5 -22h-6l-35 -110q6 0 20.5 1t20.5 1q68 0 118 -48t50 -124q0 -78 -54 -136.5t-147 -58.5q-43 0 -82.5 16.5t-70.5 56t-37 95.5z" />
    <glyph glyph-name="Egrave" unicode="&#xc8;" horiz-adv-x="1064" 
d="M950 0h-817v1516h817v-203h-596v-447h596v-202h-596v-461h596v-203zM305 2007l461 -252l-90 -164l-457 262z" />
    <glyph glyph-name="Eacute" unicode="&#xc9;" horiz-adv-x="1064" 
d="M950 0h-817v1516h817v-203h-596v-447h596v-202h-596v-461h596v-203zM387 1591l-86 154l457 262l90 -166z" />
    <glyph glyph-name="Ecircumflex" unicode="&#xca;" horiz-adv-x="1064" 
d="M950 0h-817v1516h817v-203h-596v-447h596v-202h-596v-461h596v-203zM922 1634h-244l-141 142l-148 -142h-244l285 277h205z" />
    <glyph glyph-name="Edieresis" unicode="&#xcb;" horiz-adv-x="1064" 
d="M950 0h-817v1516h817v-203h-596v-447h596v-202h-596v-461h596v-203zM586 1892h213v-250h-213v250zM268 1892h213v-250h-213v250z" />
    <glyph glyph-name="Igrave" unicode="&#xcc;" horiz-adv-x="526" 
d="M375 0h-221v1516h221v-1516zM-47 2007l461 -252l-90 -164l-457 262z" />
    <glyph glyph-name="Iacute" unicode="&#xcd;" horiz-adv-x="526" 
d="M375 0h-221v1516h221v-1516zM199 1591l-86 154l456 262l90 -166z" />
    <glyph glyph-name="Icircumflex" unicode="&#xce;" horiz-adv-x="526" 
d="M375 0h-221v1516h221v-1516zM651 1634h-243l-142 142l-147 -142h-244l285 277h205z" />
    <glyph glyph-name="Idieresis" unicode="&#xcf;" horiz-adv-x="526" 
d="M375 0h-221v1516h221v-1516zM315 1892h213v-250h-213v250zM-2 1892h213v-250h-213v250z" />
    <glyph glyph-name="Eth" unicode="&#xd0;" horiz-adv-x="1499" 
d="M133 659h-129v203h129v654h496q411 0 614 -279q78 -109 117 -237t39 -246q0 -154 -53 -303t-138 -232q-222 -219 -587 -219h-488v659zM750 862v-203h-396v-456h269q81 0 157 16.5t149.5 57.5t127.5 102t87.5 157.5t33.5 217.5q0 72 -18 146t-60 149.5t-103 133t-157 94
t-213 36.5h-273v-451h396z" />
    <glyph glyph-name="Ntilde" unicode="&#xd1;" horiz-adv-x="1511" 
d="M1358 0h-230l-749 1171h-4v-1171h-221v1516h241l738 -1154h4v1154h221v-1516zM477 1651l-96 133q56 36 101 55t65 22t45 3q23 0 146 -28t143 -28q32 0 58.5 10t104.5 48l89 -129q-114 -95 -224 -95q-24 0 -146 27t-142 27q-26 0 -52.5 -7t-43.5 -14.5t-48 -23.5z" />
    <glyph glyph-name="Ograve" unicode="&#xd2;" horiz-adv-x="1732" 
d="M1655 754q0 -154 -60.5 -297t-164 -250t-251.5 -171.5t-313 -64.5q-166 0 -313.5 64.5t-251 172.5t-163.5 252t-60 298t59 296.5t161 251t250.5 173.5t317.5 65q166 0 313 -63t251 -169.5t164.5 -252t60.5 -305.5zM1434 752q0 82 -22.5 164t-69.5 159t-112.5 136
t-160 94.5t-203.5 35.5q-113 0 -208.5 -37.5t-160.5 -98t-110.5 -138t-66.5 -156t-21 -153.5q0 -77 21 -156t67 -156.5t111 -137.5t160.5 -97t207.5 -37q113 0 209 37.5t160.5 97.5t110.5 137t67 154.5t21 151.5zM639 2007l461 -252l-90 -164l-457 262z" />
    <glyph glyph-name="Oacute" unicode="&#xd3;" horiz-adv-x="1732" 
d="M1655 754q0 -154 -60.5 -297t-164 -250t-251.5 -171.5t-313 -64.5q-166 0 -313.5 64.5t-251 172.5t-163.5 252t-60 298t59 296.5t161 251t250.5 173.5t317.5 65q166 0 313 -63t251 -169.5t164.5 -252t60.5 -305.5zM1434 752q0 82 -22.5 164t-69.5 159t-112.5 136
t-160 94.5t-203.5 35.5q-113 0 -208.5 -37.5t-160.5 -98t-110.5 -138t-66.5 -156t-21 -153.5q0 -77 21 -156t67 -156.5t111 -137.5t160.5 -97t207.5 -37q113 0 209 37.5t160.5 97.5t110.5 137t67 154.5t21 151.5zM721 1591l-86 154l457 262l90 -166z" />
    <glyph glyph-name="Ocircumflex" unicode="&#xd4;" horiz-adv-x="1732" 
d="M1655 754q0 -154 -60.5 -297t-164 -250t-251.5 -171.5t-313 -64.5q-166 0 -313.5 64.5t-251 172.5t-163.5 252t-60 298t59 296.5t161 251t250.5 173.5t317.5 65q166 0 313 -63t251 -169.5t164.5 -252t60.5 -305.5zM1434 752q0 82 -22.5 164t-69.5 159t-112.5 136
t-160 94.5t-203.5 35.5q-113 0 -208.5 -37.5t-160.5 -98t-110.5 -138t-66.5 -156t-21 -153.5q0 -77 21 -156t67 -156.5t111 -137.5t160.5 -97t207.5 -37q113 0 209 37.5t160.5 97.5t110.5 137t67 154.5t21 151.5zM1255 1634h-243l-142 142l-147 -142h-244l285 277h205z" />
    <glyph glyph-name="Otilde" unicode="&#xd5;" horiz-adv-x="1732" 
d="M1655 754q0 -154 -60.5 -297t-164 -250t-251.5 -171.5t-313 -64.5q-166 0 -313.5 64.5t-251 172.5t-163.5 252t-60 298t59 296.5t161 251t250.5 173.5t317.5 65q166 0 313 -63t251 -169.5t164.5 -252t60.5 -305.5zM1434 752q0 82 -22.5 164t-69.5 159t-112.5 136
t-160 94.5t-203.5 35.5q-113 0 -208.5 -37.5t-160.5 -98t-110.5 -138t-66.5 -156t-21 -153.5q0 -77 21 -156t67 -156.5t111 -137.5t160.5 -97t207.5 -37q113 0 209 37.5t160.5 97.5t110.5 137t67 154.5t21 151.5zM588 1651l-96 133q56 36 101 55t64.5 22t44.5 3
q23 0 146 -28t143 -28q32 0 59.5 10t104.5 48l88 -129q-114 -95 -223 -95q-24 0 -146.5 27t-142.5 27q-26 0 -52 -7t-42.5 -14.5t-48.5 -23.5z" />
    <glyph glyph-name="Odieresis" unicode="&#xd6;" horiz-adv-x="1732" 
d="M1655 754q0 -154 -60.5 -297t-164 -250t-251.5 -171.5t-313 -64.5q-166 0 -313.5 64.5t-251 172.5t-163.5 252t-60 298t59 296.5t161 251t250.5 173.5t317.5 65q166 0 313 -63t251 -169.5t164.5 -252t60.5 -305.5zM1434 752q0 82 -22.5 164t-69.5 159t-112.5 136
t-160 94.5t-203.5 35.5q-113 0 -208.5 -37.5t-160.5 -98t-110.5 -138t-66.5 -156t-21 -153.5q0 -77 21 -156t67 -156.5t111 -137.5t160.5 -97t207.5 -37q113 0 209 37.5t160.5 97.5t110.5 137t67 154.5t21 151.5zM920 1892h213v-250h-213v250zM602 1892h213v-250h-213v250z
" />
    <glyph glyph-name="multiply" unicode="&#xd7;" horiz-adv-x="1228" 
d="M467 518l-342 342l147 148l342 -342l342 342l148 -148l-344 -342l344 -342l-148 -147l-342 344l-342 -344l-147 147z" />
    <glyph glyph-name="Oslash" unicode="&#xd8;" horiz-adv-x="1732" 
d="M492 63l-144 -196l-164 115l146 200q-252 240 -252 576q0 155 59 298t161 251t250 172.5t316 64.5q214 0 385 -96l142 194l170 -118l-146 -199q21 -19 44 -44t60.5 -80t65.5 -115t49 -148t21 -180q0 -208 -102.5 -388.5t-285 -289.5t-401.5 -109q-209 0 -374 92z
M1288 1151l-672 -924q106 -53 250 -53q111 0 206.5 36.5t160.5 96t111.5 136t68 157t21.5 158.5q0 216 -146 393zM455 354l673 926q-113 61 -260 61q-115 0 -212 -38t-161.5 -99t-109.5 -139t-65.5 -155.5t-20.5 -151.5q0 -100 38 -206.5t118 -197.5z" />
    <glyph glyph-name="Ugrave" unicode="&#xd9;" horiz-adv-x="1316" 
d="M1165 1516v-1027q0 -242 -153 -389q-155 -129 -355 -129q-199 0 -354 129q-153 147 -153 389v1027h221v-1020q0 -80 22.5 -141t54 -94t73.5 -54t74 -27t62 -6t62 6t74 27t74 54t54.5 94t22.5 141v1020h221zM379 2007l461 -252l-90 -164l-457 262z" />
    <glyph glyph-name="Uacute" unicode="&#xda;" horiz-adv-x="1316" 
d="M1165 1516v-1027q0 -242 -153 -389q-155 -129 -355 -129q-199 0 -354 129q-153 147 -153 389v1027h221v-1020q0 -80 22.5 -141t54 -94t73.5 -54t74 -27t62 -6t62 6t74 27t74 54t54.5 94t22.5 141v1020h221zM563 1591l-86 154l457 262l90 -166z" />
    <glyph glyph-name="Ucircumflex" unicode="&#xdb;" horiz-adv-x="1316" 
d="M1165 1516v-1027q0 -242 -153 -389q-155 -129 -355 -129q-199 0 -354 129q-153 147 -153 389v1027h221v-1020q0 -80 22.5 -141t54 -94t73.5 -54t74 -27t62 -6t62 6t74 27t74 54t54.5 94t22.5 141v1020h221zM1047 1634h-244l-141 142l-148 -142h-244l285 277h205z" />
    <glyph glyph-name="Udieresis" unicode="&#xdc;" horiz-adv-x="1316" 
d="M1165 1516v-1027q0 -242 -153 -389q-155 -129 -355 -129q-199 0 -354 129q-153 147 -153 389v1027h221v-1020q0 -80 22.5 -141t54 -94t73.5 -54t74 -27t62 -6t62 6t74 27t74 54t54.5 94t22.5 141v1020h221zM711 1892h213v-250h-213v250zM393 1892h213v-250h-213v250z" />
    <glyph glyph-name="Yacute" unicode="&#xdd;" horiz-adv-x="1214" 
d="M719 0h-221v547l-471 969h247l334 -711l332 711h246l-467 -969v-547zM512 1591l-86 154l457 262l90 -166z" />
    <glyph glyph-name="Thorn" unicode="&#xde;" horiz-adv-x="1144" 
d="M354 299v-299h-221v1516h221v-299h217q263 0 399 -124.5t136 -334.5t-136 -334.5t-399 -124.5h-217zM354 1014v-512h217q90 0 154.5 23.5t97.5 63t47.5 81t14.5 88.5t-14.5 88.5t-47.5 81t-97.5 63t-154.5 23.5h-217z" />
    <glyph glyph-name="germandbls" unicode="&#xdf;" horiz-adv-x="1310" 
d="M135 0v1057q0 108 30.5 195t78 140t108.5 88.5t117.5 49.5t110.5 14q186 0 319 -133t133 -315q0 -151 -119 -246q82 -20 146 -64t100.5 -100.5t55 -116.5t18.5 -120q0 -202 -134 -340t-337 -138q-152 0 -258 76q-42 30 -70 56.5t-44 53.5t-23.5 45.5t-16.5 51.5h-4v-254
h-211zM348 1057v-660h172q19 -119 101 -180q65 -51 149 -51q113 0 181.5 80t68.5 182q0 11 -0.5 22t-7 38.5t-17 50.5t-34 50.5t-55.5 47t-83.5 32.5t-115.5 13h-148v188q53 1 96 14t69.5 30t46 42.5t28.5 46t14 46t5.5 36.5t0.5 23q0 93 -63.5 167.5t-171.5 74.5
q-56 0 -99 -17.5t-67.5 -48.5t-40 -61t-21 -69t-7 -57t-1.5 -40z" />
    <glyph glyph-name="agrave" unicode="&#xe0;" horiz-adv-x="1419" 
d="M1282 0h-213v176h-4q-59 -101 -162 -153t-223 -52q-139 0 -255 50.5t-190.5 134t-115.5 189t-41 218.5q0 85 23 169t72 162.5t118.5 138.5t170 96t218.5 36q121 0 223 -49t162 -141h4v160h213v-1135zM1073 565q0 179 -113 292.5t-280 113.5q-94 0 -170.5 -38t-123 -98.5
t-71 -130.5t-24.5 -139q0 -103 49 -194t139 -148t199 -57q166 0 280.5 117.5t114.5 281.5zM481 1667l461 -252l-90 -164l-457 262z" />
    <glyph glyph-name="aacute" unicode="&#xe1;" horiz-adv-x="1419" 
d="M1282 0h-213v176h-4q-59 -101 -162 -153t-223 -52q-139 0 -255 50.5t-190.5 134t-115.5 189t-41 218.5q0 85 23 169t72 162.5t118.5 138.5t170 96t218.5 36q121 0 223 -49t162 -141h4v160h213v-1135zM1073 565q0 179 -113 292.5t-280 113.5q-94 0 -170.5 -38t-123 -98.5
t-71 -130.5t-24.5 -139q0 -103 49 -194t139 -148t199 -57q166 0 280.5 117.5t114.5 281.5zM563 1251l-86 154l457 262l90 -166z" />
    <glyph glyph-name="acircumflex" unicode="&#xe2;" horiz-adv-x="1419" 
d="M1282 0h-213v176h-4q-59 -101 -162 -153t-223 -52q-139 0 -255 50.5t-190.5 134t-115.5 189t-41 218.5q0 85 23 169t72 162.5t118.5 138.5t170 96t218.5 36q121 0 223 -49t162 -141h4v160h213v-1135zM1073 565q0 179 -113 292.5t-280 113.5q-94 0 -170.5 -38t-123 -98.5
t-71 -130.5t-24.5 -139q0 -103 49 -194t139 -148t199 -57q166 0 280.5 117.5t114.5 281.5zM1098 1294h-244l-141 142l-148 -142h-243l284 277h205z" />
    <glyph glyph-name="atilde" unicode="&#xe3;" horiz-adv-x="1419" 
d="M1282 0h-213v176h-4q-59 -101 -162 -153t-223 -52q-139 0 -255 50.5t-190.5 134t-115.5 189t-41 218.5q0 85 23 169t72 162.5t118.5 138.5t170 96t218.5 36q121 0 223 -49t162 -141h4v160h213v-1135zM1073 565q0 179 -113 292.5t-280 113.5q-94 0 -170.5 -38t-123 -98.5
t-71 -130.5t-24.5 -139q0 -103 49 -194t139 -148t199 -57q166 0 280.5 117.5t114.5 281.5zM430 1311l-96 133q56 36 101 55t65 22t45 3q23 0 146 -28t143 -28q32 0 58.5 10t104.5 48l88 -129q-113 -94 -223 -94q-24 0 -146.5 26.5t-142.5 26.5q-26 0 -52 -7t-42.5 -14.5
t-48.5 -23.5z" />
    <glyph glyph-name="adieresis" unicode="&#xe4;" horiz-adv-x="1419" 
d="M1282 0h-213v176h-4q-59 -101 -162 -153t-223 -52q-139 0 -255 50.5t-190.5 134t-115.5 189t-41 218.5q0 85 23 169t72 162.5t118.5 138.5t170 96t218.5 36q121 0 223 -49t162 -141h4v160h213v-1135zM1073 565q0 179 -113 292.5t-280 113.5q-94 0 -170.5 -38t-123 -98.5
t-71 -130.5t-24.5 -139q0 -103 49 -194t139 -148t199 -57q166 0 280.5 117.5t114.5 281.5zM762 1552h213v-249h-213v249zM444 1552h213v-249h-213v249z" />
    <glyph glyph-name="aring" unicode="&#xe5;" horiz-adv-x="1419" 
d="M1282 0h-213v176h-4q-59 -101 -162 -153t-223 -52q-139 0 -255 50.5t-190.5 134t-115.5 189t-41 218.5q0 85 23 169t72 162.5t118.5 138.5t170 96t218.5 36q121 0 223 -49t162 -141h4v160h213v-1135zM1073 565q0 179 -113 292.5t-280 113.5q-94 0 -170.5 -38t-123 -98.5
t-71 -130.5t-24.5 -139q0 -103 49 -194t139 -148t199 -57q166 0 280.5 117.5t114.5 281.5zM936 1475q0 -93 -67 -159.5t-160 -66.5q-92 0 -159 67t-67 159q0 93 66.5 160t159.5 67q94 0 160.5 -66.5t66.5 -160.5zM815 1475q0 44 -31 75t-75 31q-43 0 -74 -31t-31 -75
q0 -43 31 -74t74 -31q44 0 75 31t31 74z" />
    <glyph glyph-name="ae" unicode="&#xe6;" horiz-adv-x="2316" 
d="M2232 477h-946q23 -127 125.5 -219t245.5 -92q57 0 114.5 17t117.5 63t96 114h219q-32 -89 -86 -159.5t-112 -112.5t-124 -69.5t-119.5 -37.5t-101.5 -10q-228 2 -379 162h-4v-133h-195v133q-38 -34 -61.5 -52t-75 -48.5t-117 -45.5t-143.5 -16q-137 0 -253.5 51.5
t-193 136.5t-119 194t-42.5 225q0 162 78 296.5t216 212.5t306 78q32 0 65.5 -4t93.5 -17.5t124 -50t118 -92.5h4v134h195v-134h4q39 51 94.5 86.5t112.5 50.5t99 21t79 6q120 0 227 -49.5t182 -131t118.5 -189.5t43.5 -222q0 -9 -6 -96zM1073 571q0 104 -45.5 193.5
t-138 148t-213.5 58.5q-119 0 -208.5 -58t-133 -147t-43.5 -191q0 -79 26 -152t73.5 -130.5t122 -92t163.5 -34.5q116 0 208 56.5t140.5 148.5t48.5 200zM1286 625h739q-5 74 -31.5 134.5t-64 99t-85 64.5t-94 37t-91.5 11t-91.5 -11t-95 -37t-87 -64.5t-65.5 -99
t-34 -134.5z" />
    <glyph glyph-name="ccedilla" unicode="&#xe7;" horiz-adv-x="1284" 
d="M455 -336h108q4 -12 8.5 -20t13.5 -19.5t25 -17.5t37 -6q37 0 61.5 22.5t24.5 61.5q0 37 -25.5 58t-60.5 21q-36 0 -69 -28l-70 65l59 179q-92 13 -171.5 53t-137 97.5t-98.5 129t-61.5 150.5t-20.5 159q0 115 41.5 222.5t115.5 190.5t185.5 133t241.5 50
q115 0 216 -39.5t168.5 -102t111.5 -130.5t61 -135h-236q-104 213 -319 213q-98 0 -173 -38t-117 -99.5t-62.5 -128.5t-20.5 -136q0 -75 24 -146t68 -129t116 -93t160 -35q114 0 197 57.5t125 151.5h238q-62 -184 -210.5 -291.5t-336.5 -110.5l-35 -112q6 0 20.5 1t20.5 1
q68 0 118 -48t50 -124q0 -78 -54 -136.5t-147 -58.5q-43 0 -82.5 16.5t-70.5 56t-37 95.5z" />
    <glyph glyph-name="egrave" unicode="&#xe8;" horiz-adv-x="1314" 
d="M1233 475h-940q19 -79 60 -140t93.5 -97t108 -54t111.5 -18q111 0 196 55t127 135h213q-39 -105 -105.5 -183t-143.5 -120t-151 -62t-145 -20q-158 0 -291 82t-209.5 219.5t-76.5 296.5q0 167 78.5 304t212 214.5t291.5 77.5q152 0 284 -75t212 -209.5t81 -296.5
q0 -67 -6 -109zM293 639h733q-4 62 -33.5 122t-76.5 106.5t-115 75t-142 28.5q-148 0 -253 -101t-113 -231zM430 1667l461 -252l-90 -164l-457 262z" />
    <glyph glyph-name="eacute" unicode="&#xe9;" horiz-adv-x="1314" 
d="M1233 475h-940q19 -79 60 -140t93.5 -97t108 -54t111.5 -18q111 0 196 55t127 135h213q-39 -105 -105.5 -183t-143.5 -120t-151 -62t-145 -20q-158 0 -291 82t-209.5 219.5t-76.5 296.5q0 167 78.5 304t212 214.5t291.5 77.5q152 0 284 -75t212 -209.5t81 -296.5
q0 -67 -6 -109zM293 639h733q-4 62 -33.5 122t-76.5 106.5t-115 75t-142 28.5q-148 0 -253 -101t-113 -231zM512 1251l-86 154l457 262l90 -166z" />
    <glyph glyph-name="ecircumflex" unicode="&#xea;" horiz-adv-x="1314" 
d="M1233 475h-940q19 -79 60 -140t93.5 -97t108 -54t111.5 -18q111 0 196 55t127 135h213q-39 -105 -105.5 -183t-143.5 -120t-151 -62t-145 -20q-158 0 -291 82t-209.5 219.5t-76.5 296.5q0 167 78.5 304t212 214.5t291.5 77.5q152 0 284 -75t212 -209.5t81 -296.5
q0 -67 -6 -109zM293 639h733q-4 62 -33.5 122t-76.5 106.5t-115 75t-142 28.5q-148 0 -253 -101t-113 -231zM1047 1294h-244l-141 142l-148 -142h-244l285 277h205z" />
    <glyph glyph-name="edieresis" unicode="&#xeb;" horiz-adv-x="1314" 
d="M1233 475h-940q19 -79 60 -140t93.5 -97t108 -54t111.5 -18q111 0 196 55t127 135h213q-39 -105 -105.5 -183t-143.5 -120t-151 -62t-145 -20q-158 0 -291 82t-209.5 219.5t-76.5 296.5q0 167 78.5 304t212 214.5t291.5 77.5q152 0 284 -75t212 -209.5t81 -296.5
q0 -67 -6 -109zM293 639h733q-4 62 -33.5 122t-76.5 106.5t-115 75t-142 28.5q-148 0 -253 -101t-113 -231zM711 1552h213v-249h-213v249zM393 1552h213v-249h-213v249z" />
    <glyph glyph-name="igrave" unicode="&#xec;" horiz-adv-x="487" 
d="M350 1135v-1135h-213v1135h213zM-66 1667l461 -252l-90 -164l-457 262z" />
    <glyph glyph-name="iacute" unicode="&#xed;" horiz-adv-x="487" 
d="M350 1135v-1135h-213v1135h213zM180 1251l-86 154l457 262l90 -166z" />
    <glyph glyph-name="icircumflex" unicode="&#xee;" horiz-adv-x="487" 
d="M350 1135v-1135h-213v1135h213zM633 1294h-244l-141 142l-148 -142h-243l284 277h205z" />
    <glyph glyph-name="idieresis" unicode="&#xef;" horiz-adv-x="487" 
d="M350 1135v-1135h-213v1135h213zM297 1552h213v-249h-213v249zM-20 1552h213v-249h-213v249z" />
    <glyph glyph-name="eth" unicode="&#xf0;" horiz-adv-x="1382" 
d="M688 971q-89 0 -165.5 -36.5t-126 -94.5t-77.5 -129t-28 -142q0 -73 28.5 -144.5t78.5 -129.5t127 -93.5t167 -35.5t166.5 35.5t126 93t77.5 130.5t28 150q0 72 -26 141t-74 126.5t-127 93t-175 35.5zM1110 1438l-221 -74q203 -142 308.5 -345t105.5 -415
q0 -137 -47.5 -255t-129.5 -201t-195 -130t-241 -47q-116 0 -217 37t-172 98t-122.5 139.5t-76 162t-24.5 165.5q0 161 83.5 298t221.5 215.5t295 78.5q113 0 207 -57l4 4q-80 95 -227 178l-343 -114l-135 104l299 100q-39 16 -223 84l246 80q97 -23 219 -84l254 84z" />
    <glyph glyph-name="ntilde" unicode="&#xf1;" horiz-adv-x="1277" 
d="M1143 0h-213v616q0 29 -0.5 48t-6 60t-15.5 69.5t-31 64.5t-50 58.5t-75.5 38.5t-104.5 16q-136 0 -217.5 -93t-81.5 -260v-618h-213v1135h199v-121h4q114 151 332 151q131 0 235 -53t166 -149q69 -114 72 -291v-672zM360 1311l-96 133q56 36 101 55t65 22t45 3
q23 0 146 -28t143 -28q32 0 59.5 10t104.5 48l88 -129q-113 -94 -223 -94q-24 0 -146.5 26.5t-142.5 26.5q-26 0 -52.5 -7t-43.5 -14.5t-48 -23.5z" />
    <glyph glyph-name="ograve" unicode="&#xf2;" horiz-adv-x="1382" 
d="M1303 571q0 -83 -26.5 -168t-79 -162.5t-124.5 -137.5t-171.5 -96t-211.5 -36q-138 0 -255.5 54t-194 140.5t-119.5 193.5t-43 216q0 115 46.5 222.5t127 188.5t195 130t243.5 49q126 0 240.5 -47.5t195.5 -127.5t129 -189.5t48 -229.5zM1090 571q0 101 -49 192
t-142 149.5t-209 58.5t-209 -58.5t-141.5 -150t-48.5 -193.5q0 -77 29.5 -149.5t80.5 -129t126.5 -90.5t162.5 -34q169 0 284.5 120.5t115.5 284.5zM463 1667l461 -252l-90 -164l-457 262z" />
    <glyph glyph-name="oacute" unicode="&#xf3;" horiz-adv-x="1382" 
d="M1303 571q0 -83 -26.5 -168t-79 -162.5t-124.5 -137.5t-171.5 -96t-211.5 -36q-138 0 -255.5 54t-194 140.5t-119.5 193.5t-43 216q0 115 46.5 222.5t127 188.5t195 130t243.5 49q126 0 240.5 -47.5t195.5 -127.5t129 -189.5t48 -229.5zM1090 571q0 101 -49 192
t-142 149.5t-209 58.5t-209 -58.5t-141.5 -150t-48.5 -193.5q0 -77 29.5 -149.5t80.5 -129t126.5 -90.5t162.5 -34q169 0 284.5 120.5t115.5 284.5zM545 1251l-86 154l456 262l91 -166z" />
    <glyph glyph-name="ocircumflex" unicode="&#xf4;" horiz-adv-x="1382" 
d="M1303 571q0 -83 -26.5 -168t-79 -162.5t-124.5 -137.5t-171.5 -96t-211.5 -36q-138 0 -255.5 54t-194 140.5t-119.5 193.5t-43 216q0 115 46.5 222.5t127 188.5t195 130t243.5 49q126 0 240.5 -47.5t195.5 -127.5t129 -189.5t48 -229.5zM1090 571q0 101 -49 192
t-142 149.5t-209 58.5t-209 -58.5t-141.5 -150t-48.5 -193.5q0 -77 29.5 -149.5t80.5 -129t126.5 -90.5t162.5 -34q169 0 284.5 120.5t115.5 284.5zM1079 1294h-243l-142 142l-147 -142h-244l285 277h205z" />
    <glyph glyph-name="otilde" unicode="&#xf5;" horiz-adv-x="1382" 
d="M1303 571q0 -83 -26.5 -168t-79 -162.5t-124.5 -137.5t-171.5 -96t-211.5 -36q-138 0 -255.5 54t-194 140.5t-119.5 193.5t-43 216q0 115 46.5 222.5t127 188.5t195 130t243.5 49q126 0 240.5 -47.5t195.5 -127.5t129 -189.5t48 -229.5zM1090 571q0 101 -49 192
t-142 149.5t-209 58.5t-209 -58.5t-141.5 -150t-48.5 -193.5q0 -77 29.5 -149.5t80.5 -129t126.5 -90.5t162.5 -34q169 0 284.5 120.5t115.5 284.5zM412 1311l-97 133q56 36 101 55t65 22t45 3q23 0 146 -28t143 -28q32 0 59.5 10t104.5 48l88 -129q-113 -94 -223 -94
q-24 0 -146.5 26.5t-142.5 26.5q-26 0 -52 -7t-42.5 -14.5t-48.5 -23.5z" />
    <glyph glyph-name="odieresis" unicode="&#xf6;" horiz-adv-x="1382" 
d="M1303 571q0 -83 -26.5 -168t-79 -162.5t-124.5 -137.5t-171.5 -96t-211.5 -36q-138 0 -255.5 54t-194 140.5t-119.5 193.5t-43 216q0 115 46.5 222.5t127 188.5t195 130t243.5 49q126 0 240.5 -47.5t195.5 -127.5t129 -189.5t48 -229.5zM1090 571q0 101 -49 192
t-142 149.5t-209 58.5t-209 -58.5t-141.5 -150t-48.5 -193.5q0 -77 29.5 -149.5t80.5 -129t126.5 -90.5t162.5 -34q169 0 284.5 120.5t115.5 284.5zM743 1552h213v-249h-213v249zM426 1552h213v-249h-213v249z" />
    <glyph glyph-name="divide" unicode="&#xf7;" horiz-adv-x="1228" 
d="M1130 412h-1032v213h1032v-213zM721 815h-213v221h213v-221zM721 0h-213v221h213v-221z" />
    <glyph glyph-name="oslash" unicode="&#xf8;" horiz-adv-x="1382" 
d="M446 20l-106 -161l-162 108l105 158q-104 96 -154.5 215.5t-50.5 234.5t46.5 222.5t127 188.5t195 130t243.5 49q132 0 244 -49l104 160l164 -109l-102 -155q100 -86 151.5 -203t51.5 -236q0 -86 -27 -172.5t-80 -163.5t-126 -136.5t-171.5 -94.5t-208.5 -35
q-128 0 -244 49zM987 840l-430 -652q69 -22 133 -22q114 0 207 57.5t143 149.5t50 196q0 69 -25.5 141t-77.5 130zM395 297l428 651q-72 23 -133 23q-115 0 -208 -58t-142 -149.5t-49 -194.5q0 -152 104 -272z" />
    <glyph glyph-name="ugrave" unicode="&#xf9;" horiz-adv-x="1277" 
d="M135 1135h213v-615q0 -102 21.5 -173.5t61.5 -109.5t88.5 -54.5t111.5 -16.5q137 0 217 90t80 270v609h213v-1135h-195v123h-4q-42 -72 -133 -112t-201 -40q-194 0 -323 113q-74 65 -112 168.5t-38 267.5v615zM360 1667l461 -252l-90 -164l-457 262z" />
    <glyph glyph-name="uacute" unicode="&#xfa;" horiz-adv-x="1277" 
d="M135 1135h213v-615q0 -102 21.5 -173.5t61.5 -109.5t88.5 -54.5t111.5 -16.5q137 0 217 90t80 270v609h213v-1135h-195v123h-4q-42 -72 -133 -112t-201 -40q-194 0 -323 113q-74 65 -112 168.5t-38 267.5v615zM545 1251l-86 154l456 262l91 -166z" />
    <glyph glyph-name="ucircumflex" unicode="&#xfb;" horiz-adv-x="1277" 
d="M135 1135h213v-615q0 -102 21.5 -173.5t61.5 -109.5t88.5 -54.5t111.5 -16.5q137 0 217 90t80 270v609h213v-1135h-195v123h-4q-42 -72 -133 -112t-201 -40q-194 0 -323 113q-74 65 -112 168.5t-38 267.5v615zM1028 1294h-244l-141 142l-147 -142h-244l285 277h204z" />
    <glyph glyph-name="udieresis" unicode="&#xfc;" horiz-adv-x="1277" 
d="M135 1135h213v-615q0 -102 21.5 -173.5t61.5 -109.5t88.5 -54.5t111.5 -16.5q137 0 217 90t80 270v609h213v-1135h-195v123h-4q-42 -72 -133 -112t-201 -40q-194 0 -323 113q-74 65 -112 168.5t-38 267.5v615zM692 1552h213v-249h-213v249zM375 1552h213v-249h-213v249z
" />
    <glyph glyph-name="yacute" unicode="&#xfd;" horiz-adv-x="1175" 
d="M1155 1135l-627 -1514h-221l166 402l-453 1112h230l334 -881l342 881h229zM494 1251l-86 154l456 262l90 -166z" />
    <glyph glyph-name="thorn" unicode="&#xfe;" horiz-adv-x="1404" 
d="M137 -379v1895h213v-539h4q60 93 164.5 140.5t220.5 47.5q112 0 208.5 -34.5t165 -93.5t117.5 -137.5t73 -166.5t24 -180q0 -109 -40 -212.5t-111.5 -186t-181.5 -133t-240 -50.5q-83 0 -153.5 18.5t-118 49t-78.5 61.5t-50 64h-4v-543h-213zM1114 565q0 102 -48 194.5
t-139 152t-202 59.5q-108 0 -196 -57t-135.5 -148.5t-47.5 -196.5q0 -171 111.5 -287t273.5 -116q101 0 188 49t141 141.5t54 208.5z" />
    <glyph glyph-name="ydieresis" unicode="&#xff;" horiz-adv-x="1175" 
d="M1155 1135l-627 -1514h-221l166 402l-453 1112h230l334 -881l342 881h229zM641 1552h213v-249h-213v249zM324 1552h213v-249h-213v249z" />
    <glyph glyph-name="dotlessi" unicode="&#x131;" horiz-adv-x="487" 
d="M350 1135v-1135h-213v1135h213z" />
    <glyph glyph-name="Lslash" unicode="&#x141;" horiz-adv-x="909" 
d="M162 616l-154 -104v227l154 105v672h221v-521l285 195v-227l-285 -195v-565h526v-203h-747v616z" />
    <glyph glyph-name="lslash" unicode="&#x142;" horiz-adv-x="581" 
d="M559 895l-162 -109v-12v-774h-213v643l-141 -94v203l141 94v670h213v-527l162 109v-203z" />
    <glyph glyph-name="OE" unicode="&#x152;" horiz-adv-x="2240" 
d="M1421 1516h725v-203h-504v-447h504v-202h-504v-461h504v-203h-725v217h-4q-41 -58 -95.5 -103t-113 -70.5t-109 -41.5t-105 -22t-78 -7.5t-48.5 -1.5q-149 0 -278 44.5t-221.5 120t-159 175.5t-99 212t-32.5 227q0 110 31 221t96 214t157 183t224 128t286 48
q155 0 308 -62t237 -188h4v222zM862 174q128 0 236.5 48.5t178.5 129.5t109 183.5t39 212.5q0 85 -23 169t-70 160.5t-112.5 135t-157.5 93.5t-198 35q-107 0 -200 -35t-159 -93.5t-113 -135t-70 -160.5t-23 -169q0 -110 39 -212.5t109 -183.5t178.5 -129.5t236.5 -48.5z
" />
    <glyph glyph-name="oe" unicode="&#x153;" horiz-adv-x="2342" 
d="M2263 477l-960 2q10 -56 42 -111t79.5 -100.5t114.5 -73.5t140 -28q121 0 208 55t132 139h215q-31 -79 -76.5 -142.5t-90.5 -103t-99.5 -69t-96 -43t-87.5 -21.5t-65.5 -9t-39.5 -1q-57 0 -115.5 13t-125 42t-129 86t-109.5 136q-29 -48 -72 -92.5t-105 -88t-146.5 -70
t-178.5 -26.5q-113 0 -213.5 35.5t-173.5 95t-126.5 136.5t-80 162.5t-26.5 170.5q0 152 76 287.5t216.5 221t311.5 85.5q92 0 174 -22t135 -51.5t100 -71t68 -67.5t39 -54q18 31 39.5 59.5t64 68t92 68.5t124.5 49.5t159 20.5q161 0 295 -74t214.5 -211.5t80.5 -310.5
q0 -43 -4 -92zM1087 563q0 177 -115 292.5t-288 115.5q-162 0 -277.5 -118.5t-115.5 -281.5t114.5 -284t278.5 -121t283.5 114t119.5 283zM1303 625h751q-8 77 -35.5 138.5t-65 99.5t-85.5 62.5t-94.5 34.5t-94.5 9q-48 1 -94.5 -9t-93.5 -35.5t-84.5 -63.5t-65.5 -99
t-38 -137z" />
    <glyph glyph-name="Scaron" unicode="&#x160;" horiz-adv-x="1021" 
d="M37 449h221q0 -21 4 -48.5t19 -69.5t39.5 -75t72.5 -57.5t111 -24.5q107 0 175.5 69t68.5 187q0 28 -4.5 52t-15 43.5t-20 35t-29 30t-30.5 23t-36 20t-35.5 16t-38.5 15t-35 13.5q-155 60 -212.5 90t-109.5 80q-50 49 -76 125t-26 160q0 69 26.5 139t77 132t134 101
t186.5 39q191 0 312.5 -116t121.5 -306h-221q0 60 -20 104.5t-53 68.5t-68 35t-72 11q-91 0 -147 -66t-56 -140q0 -21 4.5 -40.5t10 -34.5t17.5 -29.5t20.5 -24.5t25 -21t25 -16.5t28 -14t26 -11t25.5 -9.5t21 -8q18 -7 58.5 -21.5t63.5 -23t61.5 -25.5t62.5 -31t57 -37
t53.5 -46.5t43.5 -57t35.5 -70t21 -83.5t8.5 -101q0 -200 -129 -329.5t-336 -129.5q-65 0 -129 17t-125.5 54.5t-108.5 92t-75.5 135.5t-28.5 179zM123 1925h233l152 -156l158 156h233l-285 -291h-204z" />
    <glyph glyph-name="scaron" unicode="&#x161;" horiz-adv-x="868" 
d="M797 834h-213q-9 67 -47.5 102t-98.5 35q-59 0 -96 -33.5t-37 -87.5q0 -27 10.5 -49t23.5 -35t40.5 -26.5t46 -19.5l55.5 -18q27 -8 35.5 -11t42 -15t51 -21.5t49.5 -28t51 -37t43.5 -46t37.5 -57.5t22.5 -69t9.5 -83q0 -156 -102.5 -259.5t-278.5 -103.5q-47 0 -97 11.5
t-105.5 41t-99 73t-71.5 115.5t-28 161h213q6 -97 55 -152t137 -55q73 0 118.5 42.5t45.5 113.5q0 36 -14 63t-45 47.5t-59.5 33t-79.5 30.5q-7 3 -23 8q-124 45 -180 87q-117 88 -117 247q0 131 100.5 229t256.5 98q41 0 85 -10t91 -34.5t84 -61t61.5 -95t26.5 -130.5z
M47 1585h234l151 -155l158 155h233l-284 -291h-205z" />
    <glyph glyph-name="Ydieresis" unicode="&#x178;" horiz-adv-x="1214" 
d="M719 0h-221v547l-471 969h247l334 -711l332 711h246l-467 -969v-547zM659 1892h213v-250h-213v250zM342 1892h213v-250h-213v250z" />
    <glyph glyph-name="Zcaron" unicode="&#x17d;" horiz-adv-x="946" 
d="M940 0h-932v203l658 1110h-623v203h870v-203l-653 -1110h680v-203zM127 1925h233l152 -156l158 156h233l-285 -291h-204z" />
    <glyph glyph-name="zcaron" unicode="&#x17e;" horiz-adv-x="833" 
d="M59 1135h725v-207l-514 -733h557v-195h-821v166l545 774h-492v195zM70 1585h233l152 -155l157 155h234l-285 -291h-205z" />
    <glyph glyph-name="florin" unicode="&#x192;" 
d="M786 1208h195l-31 -194h-198l-146 -801q-35 -184 -72 -273q-99 -236 -343 -259q-28 -3 -58 -3q-50 0 -102 13l30 178h23q60 0 103 8t76.5 30t55.5 50t41.5 80.5t32.5 108.5t29 145l129 723h-197l33 194h199l12 68q37 203 155.5 312.5t274.5 109.5q5 0 37 -4l-33 -185
q-37 -1 -67.5 -10t-51.5 -22t-39 -34.5t-29 -40t-21 -46.5t-14.5 -46t-10.5 -46z" />
    <glyph glyph-name="circumflex" unicode="&#x2c6;" 
d="M956 1294h-243l-142 142l-147 -142h-244l285 277h205z" />
    <glyph glyph-name="caron" unicode="&#x2c7;" 
d="M180 1585h234l151 -155l158 155h233l-284 -291h-205z" />
    <glyph glyph-name="breve" unicode="&#x2d8;" 
d="M180 1548h162q50 -67 127 -88q43 -12 98 -12q156 0 228 100h161q-7 -19 -12 -32.5t-20.5 -41.5t-33 -48t-48.5 -44.5t-68 -40.5t-90.5 -27t-116.5 -11q-304 0 -387 245z" />
    <glyph glyph-name="dotaccent" unicode="&#x2d9;" 
d="M674 1552v-249h-213v249h213z" />
    <glyph glyph-name="ring" unicode="&#x2da;" 
d="M795 1475q0 -92 -67 -159t-161 -67q-92 0 -158.5 67t-66.5 159q0 94 66.5 160.5t158.5 66.5q94 0 161 -66.5t67 -160.5zM674 1475q0 44 -31.5 75t-75.5 31q-43 0 -73.5 -31t-30.5 -75q0 -43 30.5 -74t73.5 -31q44 0 75.5 31t31.5 74z" />
    <glyph glyph-name="ogonek" unicode="&#x2db;" 
d="M551 0h139q-41 -25 -68.5 -46t-54 -57t-26.5 -71q0 -47 33 -77t88 -30q33 0 92 23v-133q-2 -1 -9 -3.5t-9 -3.5t-9 -3.5t-10 -3t-10 -2.5t-12 -2.5t-13.5 -1.5t-16 -1.5t-17.5 -1t-21 -0.5q-63 0 -110 16t-71.5 38t-39.5 51t-19 48.5t-4 37.5q0 126 168 223z" />
    <glyph glyph-name="tilde" unicode="&#x2dc;" 
d="M289 1311l-96 133q56 36 101 55t64.5 22t44.5 3q23 0 146 -28t143 -28q32 0 59.5 10t104.5 48l88 -129q-113 -94 -223 -94q-24 0 -146.5 26.5t-142.5 26.5q-26 0 -52 -7t-42.5 -14.5t-48.5 -23.5z" />
    <glyph glyph-name="hungarumlaut" unicode="&#x2dd;" 
d="M776 1571h244l-285 -277h-205zM442 1571h244l-285 -277h-202z" />
    <glyph glyph-name="endash" unicode="&#x2013;" horiz-adv-x="1024" 
d="M952 485h-880v213h880v-213z" />
    <glyph glyph-name="emdash" unicode="&#x2014;" horiz-adv-x="2048" 
d="M1976 485h-1904v213h1904v-213z" />
    <glyph glyph-name="quoteleft" unicode="&#x2018;" horiz-adv-x="567" 
d="M176 1004v227q0 26 2 46t7.5 52.5t20 58t37 52t60 46.5t86.5 30v-130q-21 -7 -34.5 -15t-27.5 -33.5t-14 -65.5v-19h76v-249h-213z" />
    <glyph glyph-name="quoteright" unicode="&#x2019;" horiz-adv-x="567" 
d="M391 1516v-228q0 -32 -2 -56.5t-14 -64t-33 -68t-63.5 -56t-100.5 -39.5v129q21 7 34.5 15t27.5 33.5t14 65.5v19h-76v250h213z" />
    <glyph glyph-name="quotesinglbase" unicode="&#x201a;" horiz-adv-x="567" 
d="M391 250v-227q0 -26 -2 -46t-7.5 -52.5t-20 -58t-37 -52t-60 -46.5t-86.5 -30v129q21 7 34.5 15t27.5 34t14 66v18h-76v250h213z" />
    <glyph glyph-name="quotedblleft" unicode="&#x201c;" horiz-adv-x="870" 
d="M489 1004v227q0 26 2 46t7.5 52.5t20 58t37 52t60 46.5t86.5 30v-130q-21 -7 -34.5 -15t-27 -33.5t-13.5 -65.5v-19h75v-249h-213zM170 1004v227q0 26 2 46t7.5 52.5t20 58t37 52t60 46.5t86.5 30v-130q-21 -7 -34.5 -15t-27.5 -33.5t-14 -65.5v-19h76v-249h-213z" />
    <glyph glyph-name="quotedblright" unicode="&#x201d;" horiz-adv-x="870" 
d="M381 1516v-228q0 -32 -2 -56.5t-14 -64t-33 -68t-63.5 -56t-100.5 -39.5v129q21 7 34.5 15t27.5 33.5t14 65.5v19h-76v250h213zM700 1516v-228q0 -32 -2 -56.5t-14 -64t-33 -68t-63.5 -56t-100.5 -39.5v129q21 7 34.5 15t27.5 33.5t14 65.5v19h-76v250h213z" />
    <glyph glyph-name="quotedblbase" unicode="&#x201e;" horiz-adv-x="870" 
d="M381 250v-227q0 -26 -2 -46t-7.5 -52.5t-20 -58t-37 -52t-60 -46.5t-86.5 -30v129q21 7 34.5 15t27.5 34t14 66v18h-76v250h213zM700 250v-227q0 -26 -2 -46t-7.5 -52.5t-20 -58t-37 -52t-60 -46.5t-86.5 -30v129q21 7 34.5 15t27.5 34t14 66v18h-76v250h213z" />
    <glyph glyph-name="dagger" unicode="&#x2020;" horiz-adv-x="1173" 
d="M694 1516v-396h348v-194h-348v-1381h-213v1381h-348v194h348v396h213z" />
    <glyph glyph-name="daggerdbl" unicode="&#x2021;" horiz-adv-x="1173" 
d="M694 1516v-332h348v-195h-348v-733h348v-195h-348v-516h-213v516h-348v195h348v733h-348v195h348v332h213z" />
    <glyph glyph-name="bullet" unicode="&#x2022;" horiz-adv-x="1241" 
d="M623 1090q127 0 218 -93.5t91 -224.5q0 -132 -91.5 -224.5t-219.5 -92.5q-130 0 -222 93.5t-92 223.5q0 129 91 223.5t225 94.5z" />
    <glyph glyph-name="ellipsis" unicode="&#x2026;" horiz-adv-x="2048" 
d="M449 0h-213v250h213v-250zM1130 0h-212v250h212v-250zM1812 0h-213v250h213v-250z" />
    <glyph glyph-name="perthousand" unicode="&#x2030;" horiz-adv-x="2514" 
d="M1049 340q0 -78 54 -134t132 -56t132 56t54 134t-54 134t-132 56t-132 -56t-54 -134zM864 340q0 152 109 259.5t262 107.5t262 -107.5t109 -259.5t-109 -259.5t-262 -107.5t-262 107.5t-109 259.5zM1665 340q0 152 109 259.5t262 107.5t261.5 -107.5t108.5 -259.5
t-108.5 -259.5t-261.5 -107.5t-262 107.5t-109 259.5zM1849 340q0 -78 54.5 -134t132.5 -56t132 56t54 134t-54 134t-132 56t-132.5 -56t-54.5 -134zM106 1171q0 152 109 259.5t262 107.5t262 -107.5t109 -259.5t-109 -259t-262 -107t-262 107t-109 259zM291 1171
q0 -78 54 -134t132 -56t132.5 56t54.5 134t-54.5 134.5t-132.5 56.5t-132 -56.5t-54 -134.5zM1352 1516l-869 -1516h-137l868 1516h138z" />
    <glyph glyph-name="guilsinglleft" unicode="&#x2039;" horiz-adv-x="419" 
d="M350 973v-232l-153 -151l153 -152v-229l-280 274v211z" />
    <glyph glyph-name="guilsinglright" unicode="&#x203a;" horiz-adv-x="419" 
d="M70 741v232l280 -279v-211l-280 -274v229l153 152z" />
    <glyph glyph-name="fraction" unicode="&#x2044;" horiz-adv-x="380" 
d="M-51 0h-150l631 1516h150z" />
    <glyph glyph-name="trademark" unicode="&#x2122;" horiz-adv-x="2027" 
d="M1153 1434l203 -533l200 533h293v-844h-200v598h-4l-213 -598h-154l-213 598h-4v-598h-201v844h293zM692 1434v-162h-246v-682h-200v682h-246v162h692z" />
    <glyph glyph-name="minus" unicode="&#x2212;" horiz-adv-x="1228" 
d="M1130 412h-1032v213h1032v-213z" />
    <glyph glyph-name="fi" unicode="&#xfb01;" horiz-adv-x="995" 
d="M858 1516v-250h-213v250h213zM555 1516v-195q-199 0 -199 -131v-55h502v-1135h-213v940h-289v-940h-213v940h-100v195h100v55q0 173 136 264q66 39 121 50.5t155 11.5z" />
    <glyph glyph-name="fl" unicode="&#xfb02;" horiz-adv-x="995" 
d="M555 1516v-195q-199 0 -199 -131v-55h289v381h213v-1516h-213v940h-289v-940h-213v940h-100v195h100v55q0 173 136 264q66 39 121 50.5t155 11.5z" />
    </font>
</defs>
</svg>
